<svg xmlns="http://www.w3.org/2000/svg" width="14.179" height="12.309"><defs><clipPath id="a"><path d="M0 9.231h10.635V0H0z"/></clipPath></defs><g clip-path="url(#a)" transform="matrix(1.33333 0 0 -1.33333 0 12.309)" fill="#fff"><path d="M3.675 7.267c-.28 0-.747-.36-.976-.587C.366 4.394.405 2.744.433 1.538c.003-.134.005-.264.005-.388C.437.746.524.574.598.5.628.468.687.425.808.425c.315 0 .76.286.974.423.734.47.916.52 1.262.586.12.024.269.053.49.12.498.146.416 1.062.415 1.071L3.948 6.6c0 .443-.091.668-.273.668M.808 0a.694.694 0 0 0-.512.201c-.191.191-.284.502-.283.95 0 .121-.002.246-.006.378-.03 1.282-.07 3.04 2.394 5.453.072.072.728.71 1.274.71.262 0 .698-.142.698-1.093V2.647c.005-.029.126-1.252-.718-1.502a5.55 5.55 0 0 0-.53-.128c-.287-.055-.418-.08-1.09-.512C1.745.32 1.248 0 .808 0m6.151 7.267c-.181 0-.272-.225-.272-.668V2.647c-.002-.03-.084-.947.413-1.094.222-.066.37-.095.492-.119.345-.067.527-.116 1.238-.57.236-.153.682-.439.998-.439.12 0 .178.043.209.075.074.074.16.246.16.65 0 .124.002.254.006.388.027 1.206.066 2.856-2.265 5.141-.231.228-.698.588-.98.588M9.829 0c-.441 0-.938.32-1.205.491-.695.445-.825.47-1.112.526a5.484 5.484 0 0 0-.531.128c-.844.25-.723 1.473-.717 1.525L6.262 6.6c0 .95.437 1.092.697 1.092.547 0 1.203-.638 1.277-.71 2.462-2.414 2.42-4.17 2.392-5.453a12.547 12.547 0 0 1-.007-.378c.002-.448-.092-.759-.283-.95a.69.69 0 0 0-.51-.2"/><path d="M6.374 5.683a.215.215 0 0 0-.055.008c-.033.011-.837.272-.837.955v2.227H5.06V6.646c0-.683-.804-.944-.838-.955a.178.178 0 0 0-.225.117.18.18 0 0 0 .116.225c.006.002.588.193.588.613v2.406c0 .1.08.18.179.18h.78c.1 0 .18-.08.18-.18V6.646c0-.42.58-.61.587-.613a.18.18 0 1 0-.054-.35"/><path d="M4.161 4.705a.18.18 0 0 0-.176.143.18.18 0 0 0 .138.21c.021.006.55.129.975.75.036.05.102.088.154.077a.176.176 0 0 0 .147-.086c.124-.203.54-.731.975-.731a.18.18 0 0 0 .18-.18.18.18 0 0 0-.18-.178c-.51 0-.924.427-1.133.694-.48-.571-1.019-.69-1.044-.695a.147.147 0 0 0-.036-.004m1.5 3.364h-.78a.134.134 0 1 0 0 .269h.78a.134.134 0 0 0 0-.27m0-.678h-.78a.134.134 0 1 0 0 .27h.78a.134.134 0 0 0 0-.27m0-.672h-.78a.134.134 0 1 0 0 .268h.78a.134.134 0 0 0 0-.268"/></g></svg>