<svg xmlns="http://www.w3.org/2000/svg" width="11.861" height="12.211"><defs><clipPath id="a"><path d="M0 9.158h8.896V0H0z"/></clipPath></defs><g clip-path="url(#a)" transform="matrix(1.33333 0 0 -1.33333 0 12.21)" fill="#fff"><path d="M3.486.447H5.41v1.811a.224.224 0 0 0 .354.181L7.23 1.38l1.128 1.557-2.02 1.462a.223.223 0 0 0-.092.181c0 .072.034.14.092.181l2.02 1.462L7.232 7.78 5.764 6.718a.222.222 0 0 0-.354.182v1.811H3.486v-1.81a.223.223 0 0 0-.355-.182L1.664 7.78.536 6.222l2.02-1.462a.223.223 0 0 0 .093-.18.223.223 0 0 0-.092-.182L.536 2.936l1.129-1.558 1.466 1.06a.22.22 0 0 0 .233.018.223.223 0 0 0 .122-.199zM5.634 0H3.26c-.123 0-.222.1-.222.223V1.82L1.747.884a.225.225 0 0 0-.313.05L.043 2.855a.22.22 0 0 0 .05.312l1.95 1.412-1.95 1.412a.22.22 0 0 0-.05.312l1.389 1.921c.074.1.213.121.313.05l1.294-.936v1.596c0 .124.099.224.222.224h2.373c.123 0 .223-.1.223-.224V7.338l1.294.936a.228.228 0 0 0 .167.04.23.23 0 0 0 .146-.09l1.388-1.92a.222.222 0 0 0-.05-.313L6.852 4.58l1.95-1.412a.218.218 0 0 0 .09-.145.226.226 0 0 0-.04-.167L7.462.935a.223.223 0 0 0-.313-.05l-1.292.934V.223C5.857.1 5.757 0 5.634 0"/><path d="M4.448 1.572a.134.134 0 0 0-.134.134v4.99a.134.134 0 0 0 .268 0v-4.99a.134.134 0 0 0-.134-.134"/><path d="M4.448 2a.126.126 0 0 0-.053.012c-.159.067-.427.18-.468.513-.049.419.164.507.353.583l.055.023c.028.012.06.024.095.037.097.037.26.099.286.166.007.018.002.046-.018.082-.038.07-.204.142-.338.198-.183.077-.353.149-.439.28-.081.127-.102.246-.061.358.082.226.388.317.634.39l.046.014c.164.05.26.13.266.18.004.03-.029.086-.134.153-.045.028-.12.063-.207.104-.358.168-.846.399-.788.74a.43.43 0 0 0 .233.32c.267.143.708.064.922-.034a.135.135 0 1 0-.114-.244c-.166.077-.515.13-.682.042a.168.168 0 0 1-.095-.13c-.023-.14.457-.366.638-.451.099-.047.183-.087.235-.12.239-.151.273-.31.259-.415-.023-.174-.189-.321-.455-.402l-.048-.014c-.158-.047-.422-.126-.459-.226-.013-.034.012-.083.035-.117.04-.063.189-.125.319-.18.19-.081.387-.164.47-.32a.358.358 0 0 0 .033-.304c-.069-.18-.286-.261-.444-.321-.03-.012-.059-.022-.084-.033l-.058-.025c-.172-.07-.213-.086-.188-.302.021-.165.14-.227.307-.298A.134.134 0 0 0 4.448 2"/><path d="M5.006 5.692c-.076-.098-.242-.097-.37.003s-.17.26-.093.358c.075.098.242.097.37-.003.127-.1.17-.26.093-.358"/></g></svg>