<svg xmlns="http://www.w3.org/2000/svg" width="14.312" height="10.333"><defs><clipPath id="a"><path d="M0 7.75h10.734V0H0z"/></clipPath></defs><g clip-path="url(#a)" transform="matrix(1.33333 0 0 -1.33333 0 10.333)" fill="#fff"><path d="M4.128 1.734H9.83a.214.214 0 0 1 .215.215v.636a1.535 1.535 0 0 1-.182.716l-.748 1.79a1.426 1.426 0 0 1-1.32.879H5.686c-.2 0-.391-.048-.567-.142a1.171 1.171 0 0 1-.433-.391L3.435 3.57a.224.224 0 0 0-.186-.1H.447v-.403zm5.702-.447H4.088a.22.22 0 0 0-.076.013L.148 2.7A.223.223 0 0 0 0 2.91v.785c0 .124.1.224.224.224h2.905l1.185 1.767a1.645 1.645 0 0 0 1.372.732h2.109a1.872 1.872 0 0 0 1.733-1.154l.738-1.77a1.94 1.94 0 0 0 .226-.909v-.636a.656.656 0 0 0-.195-.47.655.655 0 0 0-.467-.192"/><path d="M.447 3.937h.707l-.436.897h-.27zm1.076-.447a.024.024 0 0 0-.012 0H.223C.1 3.49 0 3.59 0 3.713v1.345c0 .124.1.224.223.224h.635a.224.224 0 0 0 .201-.126l.627-1.29a.223.223 0 0 0-.163-.377M9.782 0H3.05a.224.224 0 1 0 0 .447h6.732c.014.001.39.011.519.342a.224.224 0 1 0 .418-.161C10.479.007 9.809 0 9.782 0M6.95 6.18a.134.134 0 0 0-.134.133v.864a.305.305 0 0 1-.61 0v-.864a.134.134 0 0 0-.268 0v.864a.573.573 0 0 0 1.146 0v-.864a.134.134 0 0 0-.134-.134m.536-2.343h1.456l-.371.892a.982.982 0 0 1-.332.306 1.115 1.115 0 0 1-.518.123h-.235zm1.639-.245H7.363a.122.122 0 0 0-.122.121V5.28c0 .068.055.122.122.122h.358c.225 0 .443-.052.632-.15.206-.109.32-.254.43-.405l.455-1.087a.119.119 0 0 0-.011-.113.121.121 0 0 0-.102-.055"/><path d="M7.107 6.809c.081-.003.226-.006.487-.006.558 0 1.335.013 1.642.018v.367l-2.129-.2zm.487-.274c-.713 0-.756 0-.756.154v.42c0 .07.053.129.122.135l2.398.226a.136.136 0 0 0 .103-.035.137.137 0 0 0 .043-.1V6.69a.134.134 0 0 0-.131-.134s-1.067-.02-1.779-.02M3.81 6.82c.306-.004 1.083-.017 1.641-.017.261 0 .406.003.487.006v.179l-2.129.2zm1.641-.286c-.712 0-1.779.02-1.779.02a.133.133 0 0 0-.13.135v.647c0 .037.015.073.042.099a.125.125 0 0 0 .103.034l2.398-.225a.135.135 0 0 0 .122-.134v-.421c0-.155-.043-.155-.756-.155M4.924.168a.179.179 0 0 0-.18.178v1.136a.179.179 0 1 0 .359 0V.347a.179.179 0 0 0-.18-.18m3.975.001a.179.179 0 0 0-.18.178v1.136a.179.179 0 1 0 .359 0V.347a.179.179 0 0 0-.18-.18m-2.24 1.35a.09.09 0 0 0-.089.089V5.28a.09.09 0 0 0 .178 0V1.606a.09.09 0 0 0-.089-.09M8.09 3.025h-.634a.111.111 0 0 0-.11.11c0 .062.05.112.11.112h.634c.061 0 .111-.05.111-.111a.111.111 0 0 0-.11-.111"/></g></svg>