<svg xmlns="http://www.w3.org/2000/svg" width="12.891" height="12.039"><defs><clipPath id="a"><path d="M0 9.029h9.668V0H0z"/></clipPath></defs><g clip-path="url(#a)" transform="matrix(1.33333 0 0 -1.33333 0 12.04)"><path d="M2.37 4.702h.45v.67c0 .074.06.134.134.134h.671v.451h-.67a.134.134 0 0 0-.135.134v.67h-.45v-.67a.134.134 0 0 0-.135-.134h-.67v-.45h.67c.074 0 .134-.06.134-.136zm.584-.269h-.719a.136.136 0 0 0-.135.135v.67h-.669a.134.134 0 0 0-.134.133v.72c0 .074.06.134.134.134h.67v.67c0 .075.06.135.134.135h.72c.074 0 .134-.06.134-.135v-.67h.67c.074 0 .134-.06.134-.134v-.72a.134.134 0 0 0-.134-.134h-.67v-.669a.135.135 0 0 0-.135-.135"/><path d="M.358 2.684H9.31v2.125l-2.028 2.85H.358zm9.13-.358H.18a.179.179 0 0 0-.18.179v5.334c0 .099.08.18.18.18h7.193a.18.18 0 0 0 .146-.076L9.634 4.97a.18.18 0 0 0 .034-.104V2.505a.179.179 0 0 0-.18-.18"/><path d="M5.238 8.018h.653v.653h-.653zm.833-.358H5.059a.179.179 0 0 0-.179.179V8.85c0 .099.08.179.179.179h1.012c.099 0 .179-.08.179-.179V7.839a.179.179 0 0 0-.179-.179m-.113-2.525H8.08L6.899 6.77h-.94zm2.482-.358H5.78a.179.179 0 0 0-.178.179V6.95c0 .099.08.179.179.179H6.99a.181.181 0 0 0 .145-.074L8.55 5.097a.179.179 0 0 0-.108-.32m.909-.813h-.49a.134.134 0 0 0 0 .268h.49a.134.134 0 0 0 0-.268m0-.567h-.49a.134.134 0 0 0 0 .268h.49a.134.134 0 0 0 0-.268m-4.308-.98a.179.179 0 0 0-.179.179V6.95a.179.179 0 1 0 .359 0V2.596a.179.179 0 0 0-.18-.179"/><path d="M5.043 3.697H.26a.134.134 0 1 0 0 .269h4.784a.134.134 0 0 0 0-.269M2.039 2.086A.864.864 0 1 1 2.04.358a.864.864 0 0 1-.001 1.728m0-2.086C1.366 0 .817.548.817 1.223a1.224 1.224 0 0 0 2.445 0C3.262.548 2.712 0 2.039 0m5.349 2.086a.864.864 0 1 1 0-1.728.864.864 0 0 1 0 1.728m0-2.086A1.223 1.223 0 1 0 8.61 1.223C8.61.548 8.062 0 7.388 0M6.39 3.873h-.404a.341.341 0 0 0 0 .682h.404a.341.341 0 0 0 0-.682"/></g></svg>