<svg xmlns="http://www.w3.org/2000/svg" width="13.214" height="11.8"><defs><clipPath id="a"><path d="M0 8.85h9.91V0H0z"/></clipPath></defs><g clip-path="url(#a)" transform="matrix(1.33333 0 0 -1.33333 0 11.8)" fill="#fff"><path d="M2.712 8.402a2.32 2.32 0 0 1-1.89-.997C.409 6.8.337 6.06.622 5.321 1.764 2.362 4.33.782 4.84.492c.498.218 2.9 1.4 4.378 4.44.364.75.317 1.587-.128 2.298-.45.72-1.226 1.167-2.024 1.167-.74 0-1.445-.37-2.043-1.072l-.181-.212-.168.222c-.521.688-1.218 1.067-1.963 1.067M4.812 0l-.087.045C4.595.112 1.53 1.725.203 5.16c-.34.88-.25 1.767.25 2.5a2.776 2.776 0 0 0 2.259 1.19c.808 0 1.562-.366 2.15-1.036.81.845 1.637 1.03 2.205 1.03.95 0 1.872-.528 2.403-1.377a2.77 2.77 0 0 0 .15-2.73C7.895 1.178 5.027.078 4.906.033z"/><path d="M5.195 2.189L3.64 6.037l-.934-1.911H.854v.358h1.628l1.19 2.432L5.2 3.13l1.154 2.758.782-1.404h2.148v-.358h-2.36l-.524.943z"/></g></svg>