<svg xmlns="http://www.w3.org/2000/svg" width="13.496" height="11.977"><defs><clipPath id="a"><path d="M0 8.982h10.122V0H0z"/></clipPath></defs><g clip-path="url(#a)" transform="matrix(1.33333 0 0 -1.33333 0 11.977)"><path d="M4.588.111h-.447v1.63a.792.792 0 0 1-.336.644L1.93 3.688v.875c0 .036-.014.07-.04.096a.14.14 0 0 1-.097.041h-.46l-.044-.043V3.33H.842v1.328a.488.488 0 0 0 .49.49h.461a.58.58 0 0 0 .413-.17.576.576 0 0 0 .172-.414v-.64L4.061 2.75a1.226 1.226 0 0 0 .527-1.01z"/><path d="M2.665 0h-.447v1.099L.447 2.311A.961.961 0 0 0 0 3.127v2.675a.816.816 0 0 0 .82.82h.4a.67.67 0 0 0 .483-.2.674.674 0 0 0 .2-.482V4.925h-.448V5.94a.23.23 0 0 1-.068.165.232.232 0 0 1-.166.07h-.4a.37.37 0 0 1-.373-.373V3.127a.518.518 0 0 1 .243-.441l1.974-1.351zm3.316.111h-.447v1.63a1.241 1.241 0 0 0 .527 1.011l1.683 1.171v.641a.583.583 0 0 0 .585.584h.461a.487.487 0 0 0 .49-.49V3.33h-.447v1.328l-.043.043h-.461a.14.14 0 0 1-.097-.04.142.142 0 0 1-.041-.097V3.69L6.317 2.384a.773.773 0 0 1-.246-.28.765.765 0 0 1-.09-.364z"/><path d="M7.905 0h-.447v1.335L9.423 2.68a.518.518 0 0 1 .252.447v2.675a.37.37 0 0 1-.374.373h-.4a.239.239 0 0 1-.165-.068.24.24 0 0 1-.07-.167V4.925H8.22V5.94a.678.678 0 0 0 .682.682H9.3a.815.815 0 0 0 .82-.82V3.127a.97.97 0 0 0-.455-.822L7.906 1.099zM4.563 4.803h.845v1.22c0 .124.1.224.224.224h1.22v.845h-1.22c-.124 0-.224.1-.224.223v1.22h-.845v-1.22c0-.123-.1-.223-.224-.223H3.12v-.845h1.219c.124 0 .224-.1.224-.223zm1.069-.447H4.339c-.123 0-.223.1-.223.223v1.22h-1.22a.225.225 0 0 0-.224.225v1.29c0 .125.101.225.224.225h1.22v1.22c0 .123.1.224.223.224h1.293a.224.224 0 0 0 .223-.224v-1.22h1.221c.123 0 .223-.1.223-.224V6.024c0-.124-.1-.225-.223-.225H5.855v-1.22c0-.123-.1-.223-.223-.223"/></g></svg>