<svg xmlns="http://www.w3.org/2000/svg" width="72" height="56"><defs><clipPath id="a"><path d="M0 42h54V0H0z"/></clipPath></defs><g clip-path="url(#a)" transform="matrix(1.33333 0 0 -1.33333 0 56)" fill="none" fill-opacity="0"><path d="M52 5c0-1.654-1.346-3-3-3H5C3.346 2 2 3.346 2 5v32c0 1.654 1.346 3 3 3h44c1.654 0 3-1.346 3-3zm-3 37H5c-2.757 0-5-2.243-5-5V5c0-2.757 2.243-5 5-5h44c2.757 0 5 2.243 5 5v32c0 2.757-2.243 5-5 5"/><path d="M48.347 37.757L29.374 21.37c-1.287-1.111-3.461-1.11-4.748 0L5.654 37.757a1 1 0 0 1-1.307-1.514L23.32 19.858c1.014-.877 2.347-1.315 3.68-1.315 1.333 0 2.666.439 3.68 1.315l18.974 16.385a1 1 0 0 1-1.307 1.514"/></g></svg>