<svg xmlns="http://www.w3.org/2000/svg" width="512" height="512" viewBox="0 0 612.07 612.07"><g fill="#8d8d8d"><path d="M454.515 228.113c-4.463 2.769-10.38 1.395-13.147-3.068-2.771-4.462-1.396-10.379 3.066-13.148l152.985-95.688c4.463-2.789 10.358-1.395 13.147 3.068a9.485 9.485 0 0 1 1.436 5.041h.021v363.467c0 3.586-1.991 6.713-4.921 8.367L435.569 610.486c-2.85 1.893-6.355 2.03-9.265.696v.021L182.573 498.68 14.905 610.465c-4.383 2.93-10.34 1.734-13.249-2.647a9.623 9.623 0 0 1-1.574-6.156L.202 241.6a9.484 9.484 0 0 1 4.682-8.188l-.02-.02 133.74-79.013c4.522-2.669 10.38-1.175 13.069 3.347 2.669 4.542 1.175 10.399-3.367 13.069L19.249 247.059l-.119 337.607 157.248-104.852.02.02a9.5 9.5 0 0 1 9.284-.738L429.472 591.6l163.425-108.916V141.549l-138.382 86.564z"/><path d="M306.013 0c36.956 0 70.426 15.001 94.651 39.227l.02.02.021-.02c24.226 24.206 39.207 57.716 39.207 94.692 0 37.474-20.938 82.001-47.437 123.878-26.078 41.24-57.337 79.77-79.092 106.326-3.348 4.084-9.383 4.682-13.448 1.336a9.74 9.74 0 0 1-1.833-2.012c-21.855-26.679-52.915-65.048-78.634-105.709-26.477-41.897-47.376-86.404-47.376-123.839 0-36.976 15.002-70.466 39.208-94.691C235.547 15.001 269.038 0 306.013 0zm81.203 52.735c-20.778-20.739-49.487-33.589-81.183-33.589-31.697 0-60.405 12.85-81.165 33.609-20.76 20.759-33.629 49.467-33.629 81.144 0 33.291 19.584 74.411 44.388 113.678 22.592 35.721 49.527 69.829 70.366 95.409 20.878-25.642 47.893-59.828 70.386-95.37 24.823-39.227 44.427-80.387 44.427-113.718 0-31.696-12.85-60.405-33.608-81.164l.018.001z"/><path d="M306.013 76.522c15.838 0 30.222 6.435 40.582 16.814v.04c10.379 10.38 16.814 24.744 16.814 40.542 0 15.799-6.437 30.163-16.814 40.542l-.04.04c-10.38 10.379-24.744 16.814-40.542 16.814-15.838 0-30.223-6.435-40.583-16.814-10.379-10.36-16.814-24.744-16.814-40.583 0-15.818 6.435-30.163 16.814-40.542v-.04c10.381-10.377 24.744-16.813 40.583-16.813zm27.074 30.322l-.021.021a38.169 38.169 0 0 0-27.055-11.196 38.17 38.17 0 0 0-27.055 11.196l-.02-.021c-6.894 6.933-11.177 16.496-11.177 27.075a38.167 38.167 0 0 0 11.197 27.055 38.17 38.17 0 0 0 27.055 11.196c10.56 0 20.121-4.264 27.055-11.157l.039-.04a38.214 38.214 0 0 0 11.157-27.055c.022-10.578-4.262-20.161-11.175-27.074zm106.765 495.674c0 5.259-4.264 9.521-9.521 9.521-5.26 0-9.523-4.264-9.523-9.521l.04-344.282c0-5.26 4.265-9.523 9.522-9.523 5.26 0 9.522 4.264 9.522 9.523l-.04 344.282zM191.159 483.6a9.522 9.522 0 0 1-9.523 9.523c-5.259 0-9.523-4.264-9.523-9.523l.06-225.384c0-5.26 4.263-9.523 9.522-9.523a9.522 9.522 0 0 1 9.523 9.523l-.059 225.384z"/></g></svg>