<svg xmlns="http://www.w3.org/2000/svg" width="13.371" height="12.609"><defs><clipPath id="a"><path d="M0 9.456h10.028V0H0z"/></clipPath></defs><g clip-path="url(#a)" transform="matrix(1.33333 0 0 -1.33333 0 12.609)"><path d="M6.718.571a.133.133 0 0 0-.108.055L4.882 2.964a.135.135 0 0 0 .028.188c.06.043.145.032.189-.028L6.826.786a.136.136 0 0 0-.028-.189.141.141 0 0 0-.08-.026"/><path d="M1.739 8.208a.213.213 0 0 1-.133-.037l-.286-.212a2.153 2.153 0 0 1-.858-1.425 2.165 2.165 0 0 1 .401-1.615l2.66-3.599A2.158 2.158 0 0 1 4.948.462a2.15 2.15 0 0 1 1.614.401l.287.212a.2.2 0 0 1 .078.128.188.188 0 0 1-.037.147L5.731 2.919a.306.306 0 0 1-.188.12.305.305 0 0 1-.224-.04l-.681-.417a.218.218 0 0 0-.29.057L2.366 5.321a.218.218 0 0 0 .031.294l.599.528a.306.306 0 0 1 .103.202.302.302 0 0 1-.059.216L1.882 8.13a.197.197 0 0 1-.129.078zM5.275 0a2.59 2.59 0 0 0-2.104 1.06L.51 4.66a2.604 2.604 0 0 0-.481 1.939c.105.691.47 1.299 1.031 1.712l.286.212a.635.635 0 0 0 .887-.132l1.159-1.57a.744.744 0 0 0-.106-1.006l-.448-.396L4.581 3.06l.51.312c.159.097.348.133.534.097a.75.75 0 0 0 .459-.29L7.243 1.61A.63.63 0 0 0 7.11.724L6.822.511A2.586 2.586 0 0 0 5.275 0"/><path d="M2.943 5.68a.132.132 0 0 0-.108.056L1.107 8.074a.136.136 0 0 0 .028.189c.06.043.144.03.19-.03L3.05 5.897a.137.137 0 0 0-.028-.19.141.141 0 0 0-.08-.025m4.206 3.416c-1.39 0-2.52-1.03-2.52-2.298 0-1.237 1.066-2.242 2.428-2.287a.177.177 0 0 0 .131-.065.179.179 0 0 0 .04-.142l-.073-.47.657.73a.203.203 0 0 0 .084.053C8.957 4.921 9.67 5.8 9.67 6.8c0 1.267-1.13 2.298-2.52 2.298M6.884 3.09a.178.178 0 0 0-.177.206l.135.871c-1.46.141-2.575 1.264-2.575 2.633 0 1.465 1.292 2.656 2.88 2.656 1.588 0 2.88-1.19 2.88-2.656 0-1.148-.795-2.15-1.984-2.51L7.018 3.15a.178.178 0 0 0-.133-.06"/><path d="M6.885 5.464h.527v.812a.18.18 0 0 0 .18.179h.81v.529h-.81a.18.18 0 0 0-.18.179v.812h-.527v-.812a.18.18 0 0 0-.18-.18h-.811v-.528h.81a.18.18 0 0 0 .18-.18zm.707-.358h-.887a.179.179 0 0 0-.179.179v.812h-.813a.179.179 0 0 0-.179.179v.887c0 .099.08.179.18.179h.812v.812c0 .099.08.179.178.179h.887c.1 0 .18-.08.18-.18v-.811h.812c.098 0 .178-.08.178-.18v-.886a.179.179 0 0 0-.178-.18H7.77v-.811a.179.179 0 0 0-.179-.18"/></g></svg>