<svg xmlns="http://www.w3.org/2000/svg" width="9.705" height="16.112"><defs><clipPath id="a"><path d="M0 12.084h7.278V0H0z"/></clipPath></defs><g clip-path="url(#a)" transform="matrix(1.33333 0 0 -1.33333 0 16.112)"><path d="M6.838 3.444c-.123 0-.223.1-.223.224v4.217c-.002.079-.056 1.953-3.127 1.953-2.56 0-2.75-1.892-2.756-1.972v-4.15a.224.224 0 0 0-.448 0v4.169c.003.043.238 2.4 3.204 2.4 3.534 0 3.575-2.376 3.575-2.4V3.668a.224.224 0 0 0-.225-.224"/><path d="M.636.447h6.007c.124.322.187.655.187.994a2.78 2.78 0 0 1-2.776 2.777h-.83A2.781 2.781 0 0 1 .447 1.441c0-.338.065-.67.189-.994M6.792 0H.487a.225.225 0 0 0-.205.133A3.205 3.205 0 0 0 0 1.441a3.228 3.228 0 0 0 3.224 3.224h.83a3.228 3.228 0 0 0 3.225-3.224c0-.449-.095-.889-.283-1.308A.222.222 0 0 0 6.792 0"/><path d="M2.66 4.145l.986-3.132L4.73 4.145zM3.64.262a.194.194 0 0 0-.172.126L2.245 4.271a.177.177 0 0 0 .171.232H4.98a.18.18 0 0 0 .147-.075.177.177 0 0 0 .023-.162L3.808.383a.177.177 0 0 0-.169-.12m.014 4.479A2.578 2.578 0 0 0 1.056 7.31c0 .099.08.179.18.179.1 0 .18-.08.18-.18 0-1.218.991-2.21 2.21-2.21 1.295 0 2.215.862 2.215 2.048 0 .099.08.179.18.179.1 0 .18-.08.18-.18 0-1.37-1.096-2.405-2.548-2.405"/><path d="M3.487.307a.136.136 0 0 0-.096.04l-1.07 1.105a.135.135 0 0 0 0 .19L2.68 2l-1.214.251a.129.129 0 0 0-.089.068.125.125 0 0 0-.007.113l.751 1.895c.027.07.106.103.174.076a.134.134 0 0 0 .076-.174l-.694-1.747 1.301-.269a.134.134 0 0 0 .067-.226l-.442-.443.98-1.009a.136.136 0 0 0-.003-.19.14.14 0 0 0-.094-.038m.33 0a.134.134 0 0 0-.097.227l.979 1.01-.444.443a.138.138 0 0 0-.033.133.137.137 0 0 0 .102.093l1.3.27-.693 1.746a.135.135 0 0 0 .075.174.135.135 0 0 0 .175-.076l.752-1.895a.135.135 0 0 0-.099-.18L4.622 2l.36-.359a.134.134 0 0 0 .002-.189L3.912.348a.137.137 0 0 0-.096-.04m1.864.803h.468v.284H5.68zm.602-.269h-.736a.134.134 0 0 0-.135.135v.552c0 .075.06.135.135.135h.736c.073 0 .134-.06.134-.135V.977a.135.135 0 0 0-.134-.135"/><path d="M4.658 2.932H2.812a.133.133 0 0 0-.134.134c0 .074.06.134.134.134h1.846a.134.134 0 1 0 0-.268M3.6 10.425c.527 0 1.008-.14 1.39-.402l.71.9c-1.44.967-2.762.93-4.15.02l.709-.898c.379.247.846.38 1.34.38m1.43-.937a.226.226 0 0 0-.146.054c-.325.281-.774.436-1.262.436-.496 0-.937-.147-1.262-.414a.227.227 0 0 0-.167-.049.229.229 0 0 0-.151.084l-.99 1.254a.225.225 0 0 0 .046.321c1.757 1.252 3.406 1.181 5.057-.024a.228.228 0 0 0 .044-.32l-.994-1.257a.216.216 0 0 0-.154-.084h-.02m.883-2.52h-.002c-1.114.015-2.06.812-2.412 1.15-.826-.923-2.123-.985-2.18-.987-.09-.02-.18.072-.186.172a.179.179 0 0 0 .171.186c.013 0 1.333.066 2.041 1.005a.18.18 0 0 0 .134.07c.058.014.105-.018.141-.058.01-.012 1.07-1.164 2.296-1.18a.179.179 0 0 0-.003-.358m-3.229-.243a.192.192 0 1 0-.384 0 .192.192 0 0 0 .384 0m2.168 0a.193.193 0 0 0-.385 0 .192.192 0 0 0 .385 0"/></g></svg>