<svg xmlns="http://www.w3.org/2000/svg" width="10.615" height="13.214"><defs><clipPath id="a"><path d="M0 9.91h7.961V0H0z"/></clipPath></defs><g clip-path="url(#a)" transform="matrix(1.33333 0 0 -1.33333 0 13.214)" fill="#fff"><path d="M.764 2.373H4.8v.234H.764zm4.139-.269H.662c-.056 0-.102.061-.102.135v.503c0 .074.046.134.102.134h4.241c.056 0 .102-.06.102-.134v-.503c0-.074-.046-.135-.102-.135M.358.358h7.243v.646H.358zM7.781 0H.179A.179.179 0 0 0 0 .179v1.005c0 .099.08.179.179.179h7.602a.18.18 0 0 0 .18-.179V.179A.18.18 0 0 0 7.781 0"/><path d="M4.586 1.381l2.94-.017c.529 4.34-1.831 5.34-2.564 5.545l-.446-.697c.627-.586.969-1.273 1.018-2.042.076-1.204-.582-2.286-.948-2.789m3.098-.376l-3.467.02a.181.181 0 0 0-.163.107.177.177 0 0 0 .03.191c.012.014 1.188 1.354 1.092 2.826-.046.715-.385 1.354-1.01 1.897a.177.177 0 0 0-.033.231l.597.934a.178.178 0 0 0 .19.078C5.534 7.15 8.543 6.21 7.86 1.16a.177.177 0 0 0-.176-.155M3.709 9.274l1.187-.335.094.337-1.185.334zm1.279-.635a.156.156 0 0 0-.036.005l-1.445.408a.135.135 0 0 0-.093.166l.17.595c.02.071.095.112.166.092l1.442-.407a.135.135 0 0 0 .093-.166l-.167-.595a.142.142 0 0 0-.063-.08.142.142 0 0 0-.067-.018"/><path d="M2.46 5.5l1.433-.403.82 2.91-1.431.405zm1.557-.804a.208.208 0 0 0-.05.007l-1.776.5a.181.181 0 0 0-.124.221l.919 3.257a.181.181 0 0 0 .222.124l1.775-.501a.178.178 0 0 0 .123-.222l-.918-3.256a.175.175 0 0 0-.084-.108.186.186 0 0 0-.087-.023"/><path d="M3.082 8.835l2.031-.575.088.313-2.031.573zm2.125-.875a.112.112 0 0 0-.036.005l-2.291.648a.136.136 0 0 0-.093.166l.16.57a.136.136 0 0 0 .065.08c.03.018.066.023.101.012l2.289-.646a.133.133 0 0 0 .094-.165l-.159-.572a.141.141 0 0 0-.065-.081.134.134 0 0 0-.065-.017M1.98 5l2.13-.601.073.26-2.13.6zm2.224-.9a.15.15 0 0 0-.037.004l-2.388.674a.137.137 0 0 0-.081.064.126.126 0 0 0-.012.102l.147.518c.02.07.096.112.166.093l2.387-.674a.134.134 0 0 0 .093-.166l-.146-.517a.132.132 0 0 0-.13-.098"/><path d="M2.478 4.214l.787-.223.072.26-.787.223zm.88-.523a.142.142 0 0 0-.036.005l-1.047.296a.135.135 0 0 0-.08.064.126.126 0 0 0-.013.102l.147.518c.02.071.095.112.166.093l1.045-.296a.133.133 0 0 0 .093-.165l-.145-.519a.14.14 0 0 0-.064-.08.138.138 0 0 0-.066-.018m1.018 3.762c-.36 0-.632-.26-.646-.594a.622.622 0 0 1 .594-.646h.058c.405 0 .569.166.587.594a.62.62 0 0 1-.593.646m.006-1.51l-.068.002a.89.89 0 0 0-.852.925c.019.478.41.852.889.852h.037a.89.89 0 0 0 .85-.927c-.024-.565-.311-.852-.856-.852"/><path d="M5.04 6.804a.688.688 0 0 0-.718-.661.691.691 0 1 0 .719.661"/></g></svg>