<svg xmlns="http://www.w3.org/2000/svg" width="10.153" height="8.879"><defs><clipPath id="a"><path d="M0 6.66h7.615V0H0z"/></clipPath></defs><g clip-path="url(#a)" transform="matrix(1.33333 0 0 -1.33333 0 8.88)" fill="#fff"><path d="M1.402 5.295a.956.956 0 0 1-.739-1.56L3.064.798A.978.978 0 0 1 4.408.663c.197.162.32.39.345.644a.947.947 0 0 1-.21.7L2.141 4.944a.948.948 0 0 1-.739.35M3.804 0a1.4 1.4 0 0 0-1.087.515l-2.4 2.937a1.405 1.405 0 0 0 .197 1.974c.58.472 1.503.378 1.974-.198L4.89 2.29A1.405 1.405 0 0 0 3.804 0"/><path d="M1.69 1.9a.226.226 0 0 0-.174.083.226.226 0 0 0 .032.315L3.374 3.79a.224.224 0 1 0 .283-.347L1.832 1.95a.224.224 0 0 0-.142-.05m4.24 4.312A1.23 1.23 0 0 1 4.702 5.1a1.234 1.234 0 0 1 .273-.907c.416-.507 1.23-.592 1.74-.175a1.238 1.238 0 0 1-.783 2.194m.002-2.92c-.51 0-.984.225-1.305.618a1.67 1.67 0 0 0-.372 1.234c.045.448.26.85.61 1.135a1.681 1.681 0 0 0 2.37-.237 1.688 1.688 0 0 0-.238-2.371 1.687 1.687 0 0 0-1.065-.38"/><path d="M5.492 3.361a.226.226 0 0 0-.216.284l.77 2.784a.223.223 0 1 0 .431-.119l-.769-2.784a.225.225 0 0 0-.216-.165"/></g></svg>