<svg xmlns="http://www.w3.org/2000/svg" width="11.228" height="12.054"><defs><clipPath id="a"><path d="M0 9.04h8.421V0H0z"/></clipPath></defs><g clip-path="url(#a)" transform="matrix(1.33333 0 0 -1.33333 0 12.054)" fill="#fff"><path d="M4.34 8.682c-.787 0-1.629-1.672-1.629-4.162 0-2.489.842-4.162 1.63-4.162.786 0 1.63 1.673 1.63 4.162 0 2.49-.844 4.162-1.63 4.162M4.34 0C3.225 0 2.352 1.986 2.352 4.52c0 2.535.873 4.52 1.987 4.52 1.115 0 1.988-1.985 1.988-4.52C6.328 1.986 5.455 0 4.34 0"/><path d="M1.83 6.977c-.571 0-.971-.155-1.127-.435-.194-.35-.021-.91.474-1.538.537-.678 1.38-1.356 2.373-1.907 1.163-.647 2.398-1.033 3.302-1.033.57 0 .97.155 1.126.435.195.35.023.91-.473 1.538-.536.679-1.38 1.356-2.372 1.908C3.97 6.59 2.735 6.977 1.83 6.977m5.022-5.27c-.977 0-2.244.392-3.476 1.076-1.034.574-1.915 1.284-2.48 2C.298 5.54.118 6.227.39 6.716c.225.405.723.619 1.44.619.977 0 2.245-.393 3.477-1.077 1.034-.574 1.914-1.284 2.479-2 .599-.756.778-1.443.505-1.932-.224-.406-.722-.62-1.44-.62"/><path d="M6.849 6.97c-.904 0-2.136-.383-3.295-1.022-.995-.549-1.84-1.225-2.378-1.9C.678 3.42.503 2.861.696 2.51c.157-.283.56-.438 1.136-.438.904 0 2.136.381 3.296 1.02.995.55 1.839 1.225 2.378 1.901.498.626.673 1.185.479 1.536-.156.283-.56.44-1.136.44M1.832 1.714c-.723 0-1.224.215-1.45.624-.27.49-.088 1.175.513 1.931.567.713 1.45 1.42 2.486 1.991 1.228.678 2.492 1.066 3.468 1.066.724 0 1.225-.216 1.45-.625.27-.489.089-1.175-.513-1.93-.567-.714-1.45-1.42-2.485-1.992-1.23-.677-2.493-1.065-3.47-1.065"/><path d="M4.34 4.882a.36.36 0 1 1 .002-.721.36.36 0 0 1-.002.72m0-1.08a.72.72 0 1 0 .002 1.436.72.72 0 0 0-.002-1.435M5.958.974a.531.531 0 1 0-1.063 0 .531.531 0 0 0 1.063 0M1.062 5.29a.531.531 0 1 0-1.063 0 .531.531 0 0 0 1.063 0M7.57 7.156a.531.531 0 1 0-1.062 0 .531.531 0 0 0 1.062 0"/></g></svg>