<svg xmlns="http://www.w3.org/2000/svg" viewBox="0 0 489.5 489.5" width="512" height="512"><g fill="#8d8d8d"><path d="M409.75 452.867l-.813-414.134C408.896 17.833 397.405 0 374.12 0H131.513c-23.174 0-35.63 17-35.63 38v413.5c0 16.5 13.158 30.667 36.443 30.667h242.607c23.174-.1 34.85-11.979 34.817-29.3zM116.544 88.1h272.434v278.2H116.544zM130.7 17.167h242.607c8.205 0 15.782 13.333 15.782 20.833v32.2H116.544V38c0-7.5 5.95-20.833 14.156-20.833zM116.544 451.4v-65.1h272.434v65.1c0 7.4-6.653 13.5-14.969 13.5H131.513c-8.205 0-14.969-6-14.969-13.5z"/><path d="M281.128 420.267H226.02c-7.54 0-14.451 1.833-14.451 8.633 0 6.8 6.098 7.167 13.638 7.167h55.108c7.54 0 13.638-.367 13.638-7.167s-5.285-8.633-12.825-8.633z"/></g></svg>