<svg xmlns="http://www.w3.org/2000/svg" width="12.038" height="12.348"><defs><clipPath id="a"><path d="M0 9.261h9.029V0H0z"/></clipPath></defs><g clip-path="url(#a)" transform="matrix(1.33333 0 0 -1.33333 0 12.348)"><path d="M3.574 3.002H1.602c-.427 0-.83.167-1.133.469a1.59 1.59 0 0 0-.47 1.133v2.924a.68.68 0 0 0 .682.682h.588a.224.224 0 1 0 0-.447H.68a.234.234 0 0 1-.233-.235V4.604a1.15 1.15 0 0 1 1.154-1.155h1.972a.223.223 0 1 0 0-.447"/><path d="M1.806 8.814a.227.227 0 0 1-.227-.227V7.513a.227.227 0 0 1 .454 0v1.074a.227.227 0 0 1-.227.227m0-1.975a.674.674 0 0 0-.674.674v1.074a.674.674 0 0 0 1.348 0V7.513a.674.674 0 0 0-.674-.674m2.571-3.837H3.203a.224.224 0 1 0 0 .447h1.174a1.152 1.152 0 0 1 1.155 1.155v2.924a.235.235 0 0 1-.234.235H4.71c-.123 0-.224.1-.224.223 0 .124.101.224.224.224h.588a.677.677 0 0 0 .681-.682V4.604c0-.428-.166-.831-.469-1.133a1.595 1.595 0 0 0-1.133-.469"/><path d="M4.173 8.814a.227.227 0 0 1-.227-.227V7.513a.227.227 0 0 1 .454 0v1.074a.227.227 0 0 1-.227.227m0-1.975a.674.674 0 0 0-.674.674v1.074a.674.674 0 0 0 1.348 0V7.513a.674.674 0 0 0-.674-.674M4.968 0h-1.28C3.4 0 3.13.112 2.925.315a1.07 1.07 0 0 0-.316.762v2.149a.223.223 0 0 0 .447 0V1.077c0-.168.066-.326.186-.445a.623.623 0 0 1 .444-.185h1.281c.122 0 .236.048.322.134.086.086.134.2.134.322v.824a.647.647 0 0 0 .648.647h.82a.224.224 0 1 0 0-.447h-.82a.199.199 0 0 1-.142-.059.198.198 0 0 1-.059-.141V.903a.897.897 0 0 0-.264-.638A.895.895 0 0 0 4.968 0"/><path d="M7.904 3.046a.767.767 0 0 1 0-1.53.766.766 0 0 1 0 1.53m0-1.89A1.125 1.125 0 1 0 9.028 2.28c0-.619-.504-1.124-1.124-1.124"/><path d="M7.904 2.49a.21.21 0 0 1-.209-.21.21.21 0 0 1 .21-.208.21.21 0 0 1 .208.209.21.21 0 0 1-.209.209m0-.687"/></g></svg>