<?xml version="1.0" encoding="UTF-8" standalone="no"?>
<!-- Created with Inkscape (http://www.inkscape.org/) -->

<svg
   xmlns:dc="http://purl.org/dc/elements/1.1/"
   xmlns:cc="http://creativecommons.org/ns#"
   xmlns:rdf="http://www.w3.org/1999/02/22-rdf-syntax-ns#"
   xmlns:svg="http://www.w3.org/2000/svg"
   xmlns="http://www.w3.org/2000/svg"
   xmlns:sodipodi="http://sodipodi.sourceforge.net/DTD/sodipodi-0.dtd"
   xmlns:inkscape="http://www.inkscape.org/namespaces/inkscape"
   version="1.1"
   id="svg2"
   xml:space="preserve"
   width="14.179467"
   height="12.308653"
   viewBox="0 0 14.179467 12.308653"
   sodipodi:docname="breeze.svg"
   inkscape:version="0.92.3 (2405546, 2018-03-11)"><metadata
     id="metadata8"><rdf:RDF><cc:Work
         rdf:about=""><dc:format>image/svg+xml</dc:format><dc:type
           rdf:resource="http://purl.org/dc/dcmitype/StillImage" /><dc:title></dc:title></cc:Work></rdf:RDF></metadata><defs
     id="defs6"><clipPath
       clipPathUnits="userSpaceOnUse"
       id="clipPath18"><path
         d="M 0,9.231 H 10.635 V 0 H 0 Z"
         id="path16"
         inkscape:connector-curvature="0" /></clipPath></defs><sodipodi:namedview
     pagecolor="#ffffff"
     bordercolor="#666666"
     borderopacity="1"
     objecttolerance="10"
     gridtolerance="10"
     guidetolerance="10"
     inkscape:pageopacity="0"
     inkscape:pageshadow="2"
     inkscape:window-width="640"
     inkscape:window-height="480"
     id="namedview4"
     showgrid="false"
     inkscape:zoom="19.173504"
     inkscape:cx="7.0897336"
     inkscape:cy="6.1543264"
     inkscape:window-x="0"
     inkscape:window-y="0"
     inkscape:window-maximized="0"
     inkscape:current-layer="g10" /><g
     id="g10"
     inkscape:groupmode="layer"
     inkscape:label="breeze"
     transform="matrix(1.3333333,0,0,-1.3333333,0,12.308653)"><g
       id="g12"
       style="fill:#ffffff"><g
         id="g14"
         clip-path="url(#clipPath18)"
         style="fill:#ffffff"><g
           id="g20"
           transform="translate(3.6747,7.2671)"
           style="fill:#ffffff"><path
             d="m 0,0 c -0.28,0 -0.747,-0.36 -0.976,-0.587 -2.333,-2.286 -2.294,-3.936 -2.266,-5.142 0.003,-0.134 0.005,-0.264 0.005,-0.388 -10e-4,-0.404 0.086,-0.576 0.16,-0.65 0.031,-0.032 0.089,-0.075 0.21,-0.075 0.315,0 0.761,0.286 0.974,0.423 0.734,0.47 0.916,0.519 1.262,0.586 0.121,0.024 0.269,0.053 0.491,0.119 0.497,0.147 0.415,1.063 0.414,1.072 L 0.273,-0.668 C 0.273,-0.225 0.182,0 0,0 m -2.867,-7.267 c -0.206,0 -0.379,0.067 -0.512,0.201 -0.191,0.191 -0.284,0.502 -0.283,0.95 0,0.121 -0.002,0.246 -0.006,0.378 -0.029,1.282 -0.07,3.039 2.394,5.453 0.072,0.072 0.728,0.71 1.274,0.71 0.262,0 0.698,-0.142 0.698,-1.093 V -4.62 C 0.703,-4.649 0.824,-5.872 -0.02,-6.122 -0.26,-6.192 -0.418,-6.224 -0.55,-6.25 -0.837,-6.305 -0.968,-6.331 -1.64,-6.762 -1.93,-6.948 -2.427,-7.267 -2.867,-7.267"
             style="fill:#ffffff;fill-opacity:1;fill-rule:nonzero;stroke:none"
             id="path22"
             inkscape:connector-curvature="0" /></g><g
           id="g24"
           transform="translate(6.9588,7.2671)"
           style="fill:#ffffff"><path
             d="M 0,0 C -0.181,0 -0.272,-0.225 -0.272,-0.668 V -4.62 C -0.274,-4.651 -0.356,-5.567 0.141,-5.714 0.363,-5.78 0.511,-5.809 0.633,-5.833 0.978,-5.9 1.16,-5.949 1.871,-6.404 c 0.236,-0.152 0.682,-0.438 0.998,-0.438 0.12,0 0.178,0.043 0.209,0.075 0.074,0.074 0.161,0.246 0.16,0.65 0,0.124 0.002,0.254 0.006,0.388 0.027,1.206 0.066,2.856 -2.265,5.141 C 0.748,-0.36 0.281,0 0,0 m 2.869,-7.267 v 0 c -0.441,0 -0.938,0.319 -1.205,0.491 -0.695,0.445 -0.825,0.47 -1.112,0.526 -0.133,0.026 -0.291,0.058 -0.531,0.128 -0.844,0.25 -0.723,1.473 -0.717,1.525 l -0.001,3.929 c 0,0.951 0.437,1.093 0.697,1.093 0.547,0 1.203,-0.638 1.277,-0.711 2.462,-2.413 2.421,-4.17 2.392,-5.452 C 3.665,-5.87 3.662,-5.995 3.662,-6.116 3.664,-6.564 3.57,-6.875 3.379,-7.066 3.247,-7.2 3.074,-7.267 2.869,-7.267"
             style="fill:#ffffff;fill-opacity:1;fill-rule:nonzero;stroke:none"
             id="path26"
             inkscape:connector-curvature="0" /></g><g
           id="g28"
           transform="translate(6.3739,5.6831)"
           style="fill:#ffffff"><path
             d="M 0,0 C -0.018,0 -0.036,0.003 -0.055,0.008 -0.088,0.019 -0.892,0.28 -0.892,0.963 V 3.19 H -1.313 V 0.963 c 0,-0.683 -0.804,-0.944 -0.838,-0.955 -0.098,-0.03 -0.195,0.023 -0.225,0.117 -0.029,0.094 0.022,0.195 0.116,0.225 0.006,0.002 0.588,0.193 0.588,0.613 v 2.406 c 0,0.099 0.08,0.179 0.179,0.179 h 0.78 c 0.1,0 0.18,-0.08 0.18,-0.179 V 0.963 C -0.533,0.543 0.048,0.352 0.054,0.35 0.147,0.32 0.2,0.219 0.17,0.125 0.146,0.049 0.075,0 0,0"
             style="fill:#ffffff;fill-opacity:1;fill-rule:nonzero;stroke:none"
             id="path30"
             inkscape:connector-curvature="0" /></g><g
           id="g32"
           transform="translate(4.1611,4.7046)"
           style="fill:#ffffff"><path
             d="m 0,0 c -0.083,0 -0.158,0.058 -0.176,0.143 -0.019,0.096 0.042,0.19 0.138,0.211 0.021,0.005 0.549,0.128 0.975,0.749 C 0.973,1.153 1.039,1.191 1.091,1.18 1.151,1.179 1.207,1.146 1.238,1.094 1.362,0.891 1.777,0.363 2.213,0.363 2.311,0.363 2.392,0.283 2.392,0.184 2.392,0.085 2.311,0.005 2.213,0.005 1.703,0.005 1.289,0.432 1.08,0.699 0.599,0.128 0.061,0.009 0.036,0.004 0.024,0.001 0.012,0 0,0"
             style="fill:#ffffff;fill-opacity:1;fill-rule:nonzero;stroke:none"
             id="path34"
             inkscape:connector-curvature="0" /></g><g
           id="g36"
           transform="translate(5.6611,8.0689)"
           style="fill:#ffffff"><path
             d="m 0,0 h -0.78 c -0.075,0 -0.135,0.06 -0.135,0.134 0,0.075 0.06,0.135 0.135,0.135 H 0 c 0.074,0 0.134,-0.06 0.134,-0.135 C 0.134,0.06 0.074,0 0,0"
             style="fill:#ffffff;fill-opacity:1;fill-rule:nonzero;stroke:none"
             id="path38"
             inkscape:connector-curvature="0" /></g><g
           id="g40"
           transform="translate(5.6611,7.3906)"
           style="fill:#ffffff"><path
             d="m 0,0 h -0.78 c -0.075,0 -0.135,0.06 -0.135,0.134 0,0.075 0.06,0.135 0.135,0.135 H 0 c 0.074,0 0.134,-0.06 0.134,-0.135 C 0.134,0.06 0.074,0 0,0"
             style="fill:#ffffff;fill-opacity:1;fill-rule:nonzero;stroke:none"
             id="path42"
             inkscape:connector-curvature="0" /></g><g
           id="g44"
           transform="translate(5.6611,6.7178)"
           style="fill:#ffffff"><path
             d="m 0,0 h -0.78 c -0.075,0 -0.135,0.06 -0.135,0.134 0,0.074 0.06,0.134 0.135,0.134 H 0 c 0.074,0 0.134,-0.06 0.134,-0.134 C 0.134,0.06 0.074,0 0,0"
             style="fill:#ffffff;fill-opacity:1;fill-rule:nonzero;stroke:none"
             id="path46"
             inkscape:connector-curvature="0" /></g></g></g></g></svg>