<?xml version="1.0" encoding="UTF-8" standalone="no"?>
<!-- Created with Inkscape (http://www.inkscape.org/) -->

<svg
   xmlns:dc="http://purl.org/dc/elements/1.1/"
   xmlns:cc="http://creativecommons.org/ns#"
   xmlns:rdf="http://www.w3.org/1999/02/22-rdf-syntax-ns#"
   xmlns:svg="http://www.w3.org/2000/svg"
   xmlns="http://www.w3.org/2000/svg"
   xmlns:sodipodi="http://sodipodi.sourceforge.net/DTD/sodipodi-0.dtd"
   xmlns:inkscape="http://www.inkscape.org/namespaces/inkscape"
   version="1.1"
   id="svg2"
   xml:space="preserve"
   width="11.860987"
   height="12.21092"
   viewBox="0 0 11.860987 12.21092"
   sodipodi:docname="emergency-icon.svg"
   inkscape:version="0.92.3 (2405546, 2018-03-11)"><metadata
     id="metadata8"><rdf:RDF><cc:Work
         rdf:about=""><dc:format>image/svg+xml</dc:format><dc:type
           rdf:resource="http://purl.org/dc/dcmitype/StillImage" /><dc:title></dc:title></cc:Work></rdf:RDF></metadata><defs
     id="defs6"><clipPath
       clipPathUnits="userSpaceOnUse"
       id="clipPath18"><path
         d="M 0,9.158 H 8.896 V 0 H 0 Z"
         id="path16"
         inkscape:connector-curvature="0" /></clipPath></defs><sodipodi:namedview
     pagecolor="#ffffff"
     bordercolor="#666666"
     borderopacity="1"
     objecttolerance="10"
     gridtolerance="10"
     guidetolerance="10"
     inkscape:pageopacity="0"
     inkscape:pageshadow="2"
     inkscape:window-width="640"
     inkscape:window-height="480"
     id="namedview4"
     showgrid="false"
     inkscape:zoom="19.326963"
     inkscape:cx="5.9304934"
     inkscape:cy="6.1054602"
     inkscape:window-x="0"
     inkscape:window-y="0"
     inkscape:window-maximized="0"
     inkscape:current-layer="g10" /><g
     id="g10"
     inkscape:groupmode="layer"
     inkscape:label="emergency-icon"
     transform="matrix(1.3333333,0,0,-1.3333333,0,12.21092)"><g
       id="g12"
       style="fill:#ffffff"><g
         id="g14"
         clip-path="url(#clipPath18)"
         style="fill:#ffffff"><g
           id="g20"
           transform="translate(3.4859,0.4472)"
           style="fill:#ffffff"><path
             d="m 0,0 h 1.924 v 1.811 c 0,0.084 0.047,0.161 0.121,0.199 0.076,0.038 0.166,0.031 0.233,-0.018 L 3.745,0.931 4.873,2.489 2.853,3.951 C 2.795,3.993 2.761,4.06 2.761,4.132 c 0,0.072 0.034,0.139 0.092,0.181 L 4.873,5.775 3.746,7.333 2.278,6.271 C 2.211,6.222 2.121,6.214 2.045,6.253 1.971,6.291 1.924,6.369 1.924,6.453 V 8.264 H 0 V 6.453 C 0,6.369 -0.047,6.292 -0.122,6.254 -0.197,6.215 -0.288,6.223 -0.355,6.272 L -1.822,7.333 -2.95,5.775 -0.929,4.313 c 0.058,-0.042 0.092,-0.109 0.092,-0.181 0,-0.072 -0.034,-0.139 -0.092,-0.181 l -2.021,-1.462 1.129,-1.558 1.466,1.06 c 0.067,0.05 0.159,0.057 0.233,0.018 C -0.047,1.971 0,1.894 0,1.81 Z m 2.148,-0.447 h -2.373 c -0.123,0 -0.222,0.1 -0.222,0.223 V 1.372 L -1.739,0.437 c -0.101,-0.072 -0.24,-0.05 -0.313,0.05 l -1.391,1.921 c -0.036,0.048 -0.049,0.108 -0.04,0.167 0.009,0.058 0.042,0.111 0.09,0.145 l 1.951,1.412 -1.951,1.412 c -0.048,0.034 -0.081,0.086 -0.09,0.145 -0.009,0.059 0.004,0.119 0.04,0.167 l 1.389,1.921 c 0.074,0.1 0.213,0.121 0.313,0.05 l 1.294,-0.936 v 1.596 c 0,0.124 0.099,0.224 0.222,0.224 h 2.373 c 0.123,0 0.223,-0.1 0.223,-0.224 V 6.891 l 1.294,0.936 c 0.048,0.034 0.106,0.049 0.167,0.04 0.059,-0.01 0.11,-0.042 0.146,-0.09 L 5.366,5.856 C 5.439,5.756 5.417,5.616 5.316,5.544 L 3.366,4.132 5.316,2.72 C 5.365,2.686 5.398,2.633 5.407,2.575 5.416,2.516 5.401,2.456 5.366,2.408 L 3.976,0.487 C 3.904,0.386 3.764,0.364 3.663,0.437 L 2.371,1.372 v -1.596 c 0,-0.123 -0.1,-0.223 -0.223,-0.223"
             style="fill:#ffffff;fill-opacity:1;fill-rule:nonzero;stroke:none"
             id="path22"
             inkscape:connector-curvature="0" /></g><g
           id="g24"
           transform="translate(4.448,1.5717)"
           style="fill:#ffffff"><path
             d="m 0,0 c -0.074,0 -0.134,0.06 -0.134,0.134 v 4.991 c 0,0.074 0.06,0.134 0.134,0.134 0.074,0 0.134,-0.06 0.134,-0.134 V 0.134 C 0.134,0.06 0.074,0 0,0"
             style="fill:#ffffff;fill-opacity:1;fill-rule:nonzero;stroke:none"
             id="path26"
             inkscape:connector-curvature="0" /></g><g
           id="g28"
           transform="translate(4.448,2.0009)"
           style="fill:#ffffff"><path
             d="m 0,0 c -0.018,0 -0.035,0.003 -0.053,0.011 -0.159,0.067 -0.427,0.18 -0.468,0.513 -0.049,0.419 0.164,0.507 0.353,0.583 l 0.055,0.023 c 0.028,0.012 0.06,0.024 0.095,0.037 0.097,0.037 0.26,0.099 0.286,0.166 C 0.275,1.351 0.27,1.379 0.25,1.415 0.212,1.486 0.046,1.557 -0.088,1.613 -0.271,1.69 -0.441,1.762 -0.527,1.894 -0.608,2.02 -0.629,2.139 -0.588,2.251 -0.506,2.477 -0.2,2.568 0.046,2.642 l 0.046,0.013 c 0.164,0.05 0.26,0.131 0.266,0.18 C 0.362,2.866 0.329,2.921 0.224,2.988 0.179,3.016 0.104,3.051 0.017,3.092 -0.341,3.26 -0.829,3.491 -0.771,3.832 -0.748,3.974 -0.667,4.085 -0.538,4.153 -0.271,4.295 0.17,4.216 0.384,4.118 0.45,4.087 0.479,4.007 0.449,3.94 0.418,3.872 0.338,3.843 0.27,3.874 0.104,3.951 -0.245,4.005 -0.412,3.916 -0.468,3.886 -0.496,3.847 -0.507,3.787 -0.53,3.646 -0.05,3.42 0.131,3.335 0.23,3.288 0.314,3.248 0.366,3.215 0.605,3.064 0.639,2.906 0.625,2.8 0.602,2.626 0.436,2.479 0.17,2.398 L 0.122,2.384 C -0.036,2.337 -0.3,2.258 -0.337,2.158 -0.35,2.124 -0.325,2.075 -0.302,2.041 -0.262,1.978 -0.113,1.916 0.017,1.861 0.207,1.78 0.404,1.697 0.487,1.541 0.545,1.434 0.555,1.332 0.52,1.237 0.451,1.057 0.234,0.976 0.076,0.916 0.046,0.904 0.017,0.894 -0.008,0.883 L -0.066,0.858 C -0.238,0.789 -0.279,0.772 -0.254,0.556 -0.233,0.391 -0.114,0.329 0.053,0.258 0.121,0.229 0.153,0.15 0.124,0.082 0.102,0.031 0.053,0 0,0"
             style="fill:#ffffff;fill-opacity:1;fill-rule:nonzero;stroke:none"
             id="path30"
             inkscape:connector-curvature="0" /></g><g
           id="g32"
           transform="translate(5.0065,5.6919)"
           style="fill:#ffffff"><path
             d="m 0,0 c -0.076,-0.098 -0.242,-0.097 -0.37,0.003 -0.128,0.1 -0.17,0.26 -0.093,0.358 0.075,0.098 0.242,0.097 0.369,-0.003 C 0.034,0.258 0.076,0.098 0,0"
             style="fill:#ffffff;fill-opacity:1;fill-rule:nonzero;stroke:none"
             id="path34"
             inkscape:connector-curvature="0" /></g></g></g></g></svg>