<?xml version="1.0" encoding="UTF-8" standalone="no"?>
<!-- Created with Inkscape (http://www.inkscape.org/) -->

<svg
   xmlns:dc="http://purl.org/dc/elements/1.1/"
   xmlns:cc="http://creativecommons.org/ns#"
   xmlns:rdf="http://www.w3.org/1999/02/22-rdf-syntax-ns#"
   xmlns:svg="http://www.w3.org/2000/svg"
   xmlns="http://www.w3.org/2000/svg"
   xmlns:sodipodi="http://sodipodi.sourceforge.net/DTD/sodipodi-0.dtd"
   xmlns:inkscape="http://www.inkscape.org/namespaces/inkscape"
   version="1.1"
   id="svg2"
   xml:space="preserve"
   width="13.496133"
   height="11.97652"
   viewBox="0 0 13.496133 11.97652"
   sodipodi:docname="hands.svg"
   inkscape:version="0.92.3 (2405546, 2018-03-11)"><metadata
     id="metadata8"><rdf:RDF><cc:Work
         rdf:about=""><dc:format>image/svg+xml</dc:format><dc:type
           rdf:resource="http://purl.org/dc/dcmitype/StillImage" /><dc:title></dc:title></cc:Work></rdf:RDF></metadata><defs
     id="defs6"><clipPath
       clipPathUnits="userSpaceOnUse"
       id="clipPath18"><path
         d="M 0,8.982 H 10.122 V 0 H 0 Z"
         id="path16"
         inkscape:connector-curvature="0" /></clipPath></defs><sodipodi:namedview
     pagecolor="#ffffff"
     bordercolor="#666666"
     borderopacity="1"
     objecttolerance="10"
     gridtolerance="10"
     guidetolerance="10"
     inkscape:pageopacity="0"
     inkscape:pageshadow="2"
     inkscape:window-width="716"
     inkscape:window-height="480"
     id="namedview4"
     showgrid="false"
     inkscape:zoom="19.705224"
     inkscape:cx="14.994611"
     inkscape:cy="5.9882598"
     inkscape:window-x="601"
     inkscape:window-y="80"
     inkscape:window-maximized="0"
     inkscape:current-layer="g10" /><g
     id="g10"
     inkscape:groupmode="layer"
     inkscape:label="hands"
     transform="matrix(1.3333333,0,0,-1.3333333,0,11.97652)"><g
       id="g12"
       style="fill:#ffffff"><g
         id="g14"
         clip-path="url(#clipPath18)"
         style="fill:#ffffff"><g
           id="g20"
           transform="translate(4.5884,0.1113)"
           style="fill:#ffffff"><path
             d="m 0,0 h -0.447 v 1.629 c 0,0.128 -0.03,0.25 -0.09,0.363 -0.059,0.113 -0.142,0.207 -0.246,0.281 l -1.875,1.305 v 0.875 c 0,0.036 -0.014,0.07 -0.04,0.096 C -2.725,4.575 -2.759,4.59 -2.795,4.59 H -3.256 L -3.299,4.547 V 3.219 h -0.447 v 1.328 c 0,0.132 0.051,0.255 0.144,0.348 0.091,0.091 0.215,0.142 0.346,0.142 h 0.461 c 0.156,0 0.303,-0.06 0.413,-0.171 C -2.271,4.757 -2.21,4.609 -2.21,4.453 V 3.812 L -0.527,2.64 C -0.363,2.524 -0.232,2.377 -0.14,2.199 -0.047,2.021 0,1.828 0,1.629 Z"
             style="fill:#ffffff;fill-opacity:1;fill-rule:nonzero;stroke:none"
             id="path22"
             inkscape:connector-curvature="0" /></g><g
           id="g24"
           transform="translate(2.6646)"
           style="fill:#ffffff"><path
             d="m 0,0 h -0.447 v 1.099 l -1.771,1.212 c -0.13,0.08 -0.245,0.202 -0.326,0.346 -0.079,0.144 -0.121,0.306 -0.121,0.47 v 2.675 c 0,0.219 0.085,0.425 0.241,0.58 0.154,0.155 0.361,0.24 0.58,0.24 h 0.4 c 0.183,0 0.354,-0.07 0.482,-0.2 0.129,-0.128 0.2,-0.299 0.2,-0.482 V 4.925 H -1.21 V 5.94 c 0,0.063 -0.024,0.121 -0.068,0.165 -0.045,0.045 -0.103,0.07 -0.166,0.07 h -0.4 c -0.099,0 -0.194,-0.039 -0.264,-0.11 -0.07,-0.07 -0.109,-0.164 -0.109,-0.263 V 3.127 c 0,-0.09 0.022,-0.175 0.065,-0.253 0.044,-0.079 0.104,-0.142 0.178,-0.188 L 0,1.335 Z"
             style="fill:#ffffff;fill-opacity:1;fill-rule:nonzero;stroke:none"
             id="path26"
             inkscape:connector-curvature="0" /></g><g
           id="g28"
           transform="translate(5.981,0.1113)"
           style="fill:#ffffff"><path
             d="m 0,0 h -0.447 v 1.629 c 0,0.2 0.047,0.392 0.14,0.57 0.09,0.174 0.224,0.326 0.387,0.441 l 1.683,1.172 v 0.641 c 0,0.155 0.061,0.303 0.171,0.413 0.111,0.111 0.258,0.171 0.414,0.171 H 2.809 C 2.94,5.037 3.063,4.986 3.156,4.893 3.249,4.8 3.299,4.678 3.299,4.547 V 3.219 H 2.852 V 4.547 L 2.809,4.59 H 2.348 C 2.311,4.59 2.277,4.575 2.251,4.55 2.225,4.523 2.21,4.488 2.21,4.453 V 3.578 L 0.336,2.273 C 0.231,2.199 0.148,2.105 0.09,1.992 0.03,1.879 0,1.757 0,1.629 Z"
             style="fill:#ffffff;fill-opacity:1;fill-rule:nonzero;stroke:none"
             id="path30"
             inkscape:connector-curvature="0" /></g><g
           id="g32"
           transform="translate(7.9048)"
           style="fill:#ffffff"><path
             d="M 0,0 H -0.447 V 1.335 L 1.518,2.68 C 1.6,2.732 1.662,2.797 1.705,2.874 1.748,2.952 1.77,3.037 1.77,3.127 V 5.802 C 1.77,5.901 1.731,5.995 1.661,6.065 1.59,6.136 1.496,6.175 1.396,6.175 H 0.997 C 0.934,6.175 0.876,6.15 0.831,6.107 0.787,6.061 0.762,6.003 0.762,5.94 V 4.925 H 0.315 V 5.94 c 0,0.183 0.071,0.354 0.2,0.483 0.128,0.129 0.299,0.199 0.482,0.199 h 0.399 c 0.22,0 0.426,-0.085 0.581,-0.24 0.155,-0.155 0.24,-0.361 0.24,-0.58 V 3.127 C 2.217,2.964 2.176,2.802 2.097,2.658 2.017,2.514 1.901,2.391 1.762,2.305 L 0,1.099 Z"
             style="fill:#ffffff;fill-opacity:1;fill-rule:nonzero;stroke:none"
             id="path34"
             inkscape:connector-curvature="0" /></g><g
           id="g36"
           transform="translate(4.563,4.8027)"
           style="fill:#ffffff"><path
             d="m 0,0 h 0.845 v 1.221 c 0,0.123 0.1,0.223 0.224,0.223 h 1.22 v 0.845 h -1.22 c -0.124,0 -0.224,0.1 -0.224,0.223 v 1.22 H 0 V 2.512 C 0,2.389 -0.1,2.289 -0.224,2.289 H -1.443 V 1.444 h 1.219 C -0.1,1.444 0,1.344 0,1.221 Z m 1.069,-0.447 h -1.293 c -0.123,0 -0.223,0.1 -0.223,0.223 v 1.22 h -1.22 c -0.123,0 -0.224,0.101 -0.224,0.225 v 1.291 c 0,0.124 0.101,0.224 0.224,0.224 h 1.22 v 1.22 c 0,0.123 0.1,0.224 0.223,0.224 h 1.293 c 0.123,0 0.223,-0.101 0.223,-0.224 v -1.22 h 1.221 c 0.123,0 0.223,-0.1 0.223,-0.224 V 1.221 c 0,-0.124 -0.1,-0.225 -0.223,-0.225 H 1.292 v -1.22 c 0,-0.123 -0.1,-0.223 -0.223,-0.223"
             style="fill:#ffffff;fill-opacity:1;fill-rule:nonzero;stroke:none"
             id="path38"
             inkscape:connector-curvature="0" /></g></g></g></g></svg>