<?xml version="1.0" encoding="UTF-8" standalone="no"?>
<!-- Created with Inkscape (http://www.inkscape.org/) -->

<svg
   xmlns:dc="http://purl.org/dc/elements/1.1/"
   xmlns:cc="http://creativecommons.org/ns#"
   xmlns:rdf="http://www.w3.org/1999/02/22-rdf-syntax-ns#"
   xmlns:svg="http://www.w3.org/2000/svg"
   xmlns="http://www.w3.org/2000/svg"
   xmlns:sodipodi="http://sodipodi.sourceforge.net/DTD/sodipodi-0.dtd"
   xmlns:inkscape="http://www.inkscape.org/namespaces/inkscape"
   version="1.1"
   id="svg2"
   xml:space="preserve"
   width="14.311733"
   height="10.333333"
   viewBox="0 0 14.311733 10.333333"
   sodipodi:docname="helikopter.svg"
   inkscape:version="0.92.3 (2405546, 2018-03-11)"><metadata
     id="metadata8"><rdf:RDF><cc:Work
         rdf:about=""><dc:format>image/svg+xml</dc:format><dc:type
           rdf:resource="http://purl.org/dc/dcmitype/StillImage" /><dc:title></dc:title></cc:Work></rdf:RDF></metadata><defs
     id="defs6"><clipPath
       clipPathUnits="userSpaceOnUse"
       id="clipPath18"><path
         d="M 0,7.75 H 10.734 V 0 H 0 Z"
         id="path16"
         inkscape:connector-curvature="0" /></clipPath></defs><sodipodi:namedview
     pagecolor="#ffffff"
     bordercolor="#666666"
     borderopacity="1"
     objecttolerance="10"
     gridtolerance="10"
     guidetolerance="10"
     inkscape:pageopacity="0"
     inkscape:pageshadow="2"
     inkscape:window-width="640"
     inkscape:window-height="480"
     id="namedview4"
     showgrid="false"
     inkscape:zoom="22.83871"
     inkscape:cx="7.1558666"
     inkscape:cy="5.1666665"
     inkscape:window-x="0"
     inkscape:window-y="0"
     inkscape:window-maximized="0"
     inkscape:current-layer="g10" /><g
     id="g10"
     inkscape:groupmode="layer"
     inkscape:label="helikopter"
     transform="matrix(1.3333333,0,0,-1.3333333,0,10.333333)"><g
       id="g12"
       style="fill:#ffffff"><g
         id="g14"
         clip-path="url(#clipPath18)"
         style="fill:#ffffff"><g
           id="g20"
           transform="translate(4.128,1.7339)"
           style="fill:#ffffff"><path
             d="M 0,0 H 5.702 C 5.759,0 5.813,0.022 5.853,0.062 5.895,0.104 5.917,0.158 5.917,0.215 V 0.851 C 5.917,0.975 5.901,1.099 5.871,1.22 5.839,1.342 5.794,1.458 5.735,1.567 L 4.987,3.357 C 4.877,3.619 4.695,3.84 4.46,3.996 4.225,4.153 3.951,4.236 3.667,4.236 H 1.558 C 1.358,4.236 1.167,4.188 0.991,4.094 0.814,4.001 0.669,3.869 0.558,3.703 L -0.693,1.837 c -0.042,-0.063 -0.112,-0.1 -0.186,-0.1 H -3.681 V 1.334 Z M 5.702,-0.447 H -0.04 c -0.026,0 -0.051,0.004 -0.076,0.013 L -3.98,0.967 c -0.089,0.032 -0.148,0.116 -0.148,0.21 v 0.784 c 0,0.124 0.1,0.224 0.224,0.224 h 2.905 L 0.186,3.952 C 0.336,4.177 0.542,4.363 0.781,4.49 1.019,4.617 1.288,4.684 1.558,4.684 H 3.667 C 4.039,4.684 4.399,4.575 4.708,4.369 5.018,4.163 5.256,3.873 5.4,3.53 L 6.138,1.76 C 6.205,1.64 6.264,1.488 6.304,1.33 6.344,1.173 6.364,1.012 6.364,0.851 V 0.215 C 6.364,0.038 6.295,-0.129 6.169,-0.254 6.046,-0.378 5.879,-0.447 5.702,-0.447"
             style="fill:#ffffff;fill-opacity:1;fill-rule:nonzero;stroke:none"
             id="path22"
             inkscape:connector-curvature="0" /></g><g
           id="g24"
           transform="translate(0.4473,3.9366)"
           style="fill:#ffffff"><path
             d="M 0,0 H 0.707 L 0.271,0.897 H 0 Z m 1.076,-0.447 c -0.003,-0.001 -0.007,-0.001 -0.012,0 h -1.288 c -0.123,0 -0.223,0.1 -0.223,0.223 v 1.345 c 0,0.124 0.1,0.224 0.223,0.224 h 0.635 c 0.085,0 0.164,-0.049 0.201,-0.126 L 1.239,-0.07 c 0.037,-0.04 0.06,-0.095 0.06,-0.154 0,-0.123 -0.1,-0.223 -0.223,-0.223"
             style="fill:#ffffff;fill-opacity:1;fill-rule:nonzero;stroke:none"
             id="path26"
             inkscape:connector-curvature="0" /></g><g
           id="g28"
           transform="translate(9.7818)"
           style="fill:#ffffff"><path
             d="m 0,0 h -6.732 c -0.124,0 -0.224,0.1 -0.224,0.224 0,0.123 0.1,0.223 0.224,0.223 H 0 C 0.014,0.448 0.391,0.458 0.519,0.789 0.563,0.905 0.693,0.963 0.809,0.917 0.924,0.873 0.981,0.743 0.937,0.628 0.697,0.007 0.028,0 0,0"
             style="fill:#ffffff;fill-opacity:1;fill-rule:nonzero;stroke:none"
             id="path30"
             inkscape:connector-curvature="0" /></g><g
           id="g32"
           transform="translate(6.9498,6.1792)"
           style="fill:#ffffff"><path
             d="m 0,0 c -0.074,0 -0.134,0.06 -0.134,0.134 v 0.864 c 0,0.168 -0.137,0.304 -0.304,0.304 -0.168,0 -0.305,-0.136 -0.305,-0.304 V 0.134 C -0.743,0.06 -0.803,0 -0.878,0 -0.952,0 -1.012,0.06 -1.012,0.134 v 0.864 c 0,0.316 0.258,0.573 0.574,0.573 0.315,0 0.572,-0.257 0.572,-0.573 V 0.134 C 0.134,0.06 0.074,0 0,0"
             style="fill:#ffffff;fill-opacity:1;fill-rule:nonzero;stroke:none"
             id="path34"
             inkscape:connector-curvature="0" /></g><g
           id="g36"
           transform="translate(7.4859,3.8355)"
           style="fill:#ffffff"><path
             d="M 0,0 H 1.456 L 1.085,0.892 C 1.003,0.999 0.912,1.115 0.753,1.198 0.599,1.279 0.42,1.321 0.235,1.321 H 0 Z m 1.639,-0.245 h -1.762 c -0.067,0 -0.122,0.055 -0.122,0.122 v 1.567 c 0,0.068 0.055,0.122 0.122,0.122 H 0.235 C 0.46,1.566 0.678,1.514 0.867,1.415 1.073,1.307 1.188,1.162 1.297,1.011 L 1.752,-0.076 C 1.768,-0.113 1.764,-0.157 1.741,-0.19 1.718,-0.225 1.68,-0.245 1.639,-0.245"
             style="fill:#ffffff;fill-opacity:1;fill-rule:nonzero;stroke:none"
             id="path38"
             inkscape:connector-curvature="0" /></g><g
           id="g40"
           transform="translate(7.107,6.8086)"
           style="fill:#ffffff"><path
             d="m 0,0 c 0.081,-0.003 0.226,-0.006 0.487,-0.006 0.558,0 1.335,0.013 1.642,0.018 V 0.379 L 0,0.179 Z m 0.487,-0.274 c -0.713,0 -0.756,0 -0.756,0.154 v 0.421 c 0,0.07 0.053,0.128 0.122,0.134 L 2.251,0.661 C 2.286,0.665 2.325,0.652 2.354,0.626 2.381,0.601 2.397,0.564 2.397,0.527 V -0.12 c 0,-0.073 -0.058,-0.132 -0.131,-0.134 0,0 -1.067,-0.02 -1.779,-0.02"
             style="fill:#ffffff;fill-opacity:1;fill-rule:nonzero;stroke:none"
             id="path42"
             inkscape:connector-curvature="0" /></g><g
           id="g44"
           transform="translate(3.8091,6.8208)"
           style="fill:#ffffff"><path
             d="m 0,0 c 0.307,-0.005 1.084,-0.018 1.642,-0.018 0.261,0 0.406,0.003 0.487,0.006 V 0.167 L 0,0.367 Z m 1.642,-0.287 c -0.712,0 -1.779,0.021 -1.779,0.021 -0.073,0.001 -0.131,0.061 -0.131,0.134 v 0.647 c 0,0.037 0.016,0.073 0.043,0.099 0.028,0.026 0.064,0.039 0.103,0.034 L 2.276,0.423 C 2.345,0.417 2.398,0.358 2.398,0.289 v -0.421 c 0,-0.155 -0.043,-0.155 -0.756,-0.155"
             style="fill:#ffffff;fill-opacity:1;fill-rule:nonzero;stroke:none"
             id="path46"
             inkscape:connector-curvature="0" /></g><g
           id="g48"
           transform="translate(4.9239,0.1675)"
           style="fill:#ffffff"><path
             d="m 0,0 c -0.099,0 -0.179,0.08 -0.179,0.179 v 1.136 c 0,0.099 0.08,0.179 0.179,0.179 0.099,0 0.179,-0.08 0.179,-0.179 V 0.179 C 0.179,0.08 0.099,0 0,0"
             style="fill:#ffffff;fill-opacity:1;fill-rule:nonzero;stroke:none"
             id="path50"
             inkscape:connector-curvature="0" /></g><g
           id="g52"
           transform="translate(8.8975,0.1675)"
           style="fill:#ffffff"><path
             d="m 0,0 c -0.099,0 -0.179,0.08 -0.179,0.179 v 1.136 c 0,0.099 0.08,0.179 0.179,0.179 0.099,0 0.179,-0.08 0.179,-0.179 V 0.179 C 0.179,0.08 0.099,0 0,0"
             style="fill:#ffffff;fill-opacity:1;fill-rule:nonzero;stroke:none"
             id="path54"
             inkscape:connector-curvature="0" /></g><g
           id="g56"
           transform="translate(6.6573,1.5166)"
           style="fill:#ffffff"><path
             d="m 0,0 c -0.049,0 -0.089,0.04 -0.089,0.089 v 3.674 c 0,0.049 0.04,0.089 0.089,0.089 0.049,0 0.089,-0.04 0.089,-0.089 V 0.089 C 0.089,0.04 0.049,0 0,0"
             style="fill:#ffffff;fill-opacity:1;fill-rule:nonzero;stroke:none"
             id="path58"
             inkscape:connector-curvature="0" /></g><g
           id="g60"
           transform="translate(8.0904,3.0249)"
           style="fill:#ffffff"><path
             d="m 0,0 h -0.634 c -0.061,0 -0.111,0.05 -0.111,0.111 0,0.061 0.05,0.111 0.111,0.111 H 0 c 0.061,0 0.111,-0.05 0.111,-0.111 C 0.111,0.05 0.061,0 0,0"
             style="fill:#ffffff;fill-opacity:1;fill-rule:nonzero;stroke:none"
             id="path62"
             inkscape:connector-curvature="0" /></g></g></g></g></svg>