<?xml version="1.0" encoding="UTF-8" standalone="no"?>
<!-- Created with Inkscape (http://www.inkscape.org/) -->

<svg
   xmlns:dc="http://purl.org/dc/elements/1.1/"
   xmlns:cc="http://creativecommons.org/ns#"
   xmlns:rdf="http://www.w3.org/1999/02/22-rdf-syntax-ns#"
   xmlns:svg="http://www.w3.org/2000/svg"
   xmlns="http://www.w3.org/2000/svg"
   xmlns:sodipodi="http://sodipodi.sourceforge.net/DTD/sodipodi-0.dtd"
   xmlns:inkscape="http://www.inkscape.org/namespaces/inkscape"
   version="1.1"
   id="svg2"
   xml:space="preserve"
   width="12.890667"
   height="12.039067"
   viewBox="0 0 12.890667 12.039067"
   sodipodi:docname="hospital_car.svg"
   inkscape:version="0.92.3 (2405546, 2018-03-11)"><metadata
     id="metadata8"><rdf:RDF><cc:Work
         rdf:about=""><dc:format>image/svg+xml</dc:format><dc:type
           rdf:resource="http://purl.org/dc/dcmitype/StillImage" /><dc:title></dc:title></cc:Work></rdf:RDF></metadata><defs
     id="defs6"><clipPath
       clipPathUnits="userSpaceOnUse"
       id="clipPath18"><path
         d="M 0,9.029 H 9.668 V 0 H 0 Z"
         id="path16"
         inkscape:connector-curvature="0" /></clipPath></defs><sodipodi:namedview
     pagecolor="#ffffff"
     bordercolor="#666666"
     borderopacity="1"
     objecttolerance="10"
     gridtolerance="10"
     guidetolerance="10"
     inkscape:pageopacity="0"
     inkscape:pageshadow="2"
     inkscape:window-width="1600"
     inkscape:window-height="838"
     id="namedview4"
     showgrid="false"
     inkscape:zoom="39.205695"
     inkscape:cx="6.4453335"
     inkscape:cy="6.0195336"
     inkscape:window-x="-8"
     inkscape:window-y="-8"
     inkscape:window-maximized="1"
     inkscape:current-layer="g10" /><g
     id="g10"
     inkscape:groupmode="layer"
     inkscape:label="hospital_car"
     transform="matrix(1.3333333,0,0,-1.3333333,0,12.039067)"><g
       id="g12"
       style="fill:#000000"><g
         id="g14"
         clip-path="url(#clipPath18)"
         style="fill:#000000"><g
           id="g20"
           transform="translate(2.3692,4.7022)"
           style="fill:#000000"><path
             d="m 0,0 h 0.451 v 0.669 c 0,0.075 0.06,0.135 0.134,0.135 H 1.256 V 1.255 H 0.585 c -0.074,0 -0.134,0.06 -0.134,0.134 v 0.67 H 0 V 1.389 C 0,1.315 -0.06,1.255 -0.134,1.255 h -0.67 V 0.804 h 0.67 C -0.06,0.804 0,0.744 0,0.669 Z m 0.585,-0.269 h -0.719 c -0.074,0 -0.135,0.061 -0.135,0.135 v 0.669 h -0.669 c -0.074,0 -0.134,0.06 -0.134,0.134 v 0.72 c 0,0.074 0.06,0.134 0.134,0.134 h 0.669 v 0.67 c 0,0.075 0.061,0.135 0.135,0.135 h 0.719 c 0.075,0 0.135,-0.06 0.135,-0.135 v -0.67 h 0.67 c 0.074,0 0.134,-0.06 0.134,-0.134 V 0.669 C 1.524,0.595 1.464,0.535 1.39,0.535 H 0.72 v -0.669 c 0,-0.074 -0.06,-0.135 -0.135,-0.135"
             style="fill:#000000;fill-opacity:1;fill-rule:nonzero;stroke:none"
             id="path22"
             inkscape:connector-curvature="0" /></g><g
           id="g24"
           transform="translate(0.3584,2.6836)"
           style="fill:#000000"><path
             d="M 0,0 H 8.951 V 2.125 L 6.923,4.976 H 0 Z m 9.13,-0.358 h -9.309 c -0.099,0 -0.179,0.08 -0.179,0.179 v 5.334 c 0,0.099 0.08,0.18 0.179,0.18 h 7.194 c 0.058,0 0.113,-0.029 0.146,-0.076 L 9.276,2.286 C 9.298,2.255 9.31,2.219 9.31,2.182 v -2.361 c 0,-0.099 -0.08,-0.179 -0.18,-0.179"
             style="fill:#000000;fill-opacity:1;fill-rule:nonzero;stroke:none"
             id="path26"
             inkscape:connector-curvature="0" /></g><path
           d="M 5.238,8.018 H 5.891 V 8.671 H 5.238 Z M 6.071,7.66 H 5.059 C 4.96,7.66 4.88,7.74 4.88,7.839 V 8.85 c 0,0.099 0.08,0.179 0.179,0.179 H 6.071 C 6.17,9.029 6.25,8.949 6.25,8.85 V 7.839 C 6.25,7.74 6.17,7.66 6.071,7.66"
           style="fill:#000000;fill-opacity:1;fill-rule:nonzero;stroke:none"
           id="path28"
           inkscape:connector-curvature="0" /><g
           id="g30"
           transform="translate(5.9585,5.1348)"
           style="fill:#000000"><path
             d="M 0,0 H 2.122 L 0.939,1.636 H 0 Z M 2.482,-0.358 H 2.473 -0.179 c -0.099,0 -0.179,0.08 -0.179,0.179 v 1.994 c 0,0.099 0.08,0.179 0.179,0.179 H 1.03 c 0.057,0 0.111,-0.028 0.145,-0.074 l 1.416,-1.958 c 0.042,-0.032 0.07,-0.084 0.07,-0.141 0,-0.099 -0.08,-0.179 -0.179,-0.179"
             style="fill:#000000;fill-opacity:1;fill-rule:nonzero;stroke:none"
             id="path32"
             inkscape:connector-curvature="0" /></g><g
           id="g34"
           transform="translate(9.3511,3.9644)"
           style="fill:#000000"><path
             d="m 0,0 h -0.491 c -0.074,0 -0.134,0.06 -0.134,0.134 0,0.074 0.06,0.134 0.134,0.134 H 0 c 0.074,0 0.134,-0.06 0.134,-0.134 C 0.134,0.06 0.074,0 0,0"
             style="fill:#000000;fill-opacity:1;fill-rule:nonzero;stroke:none"
             id="path36"
             inkscape:connector-curvature="0" /></g><g
           id="g38"
           transform="translate(9.3511,3.397)"
           style="fill:#000000"><path
             d="m 0,0 h -0.491 c -0.074,0 -0.134,0.06 -0.134,0.134 0,0.074 0.06,0.134 0.134,0.134 H 0 c 0.074,0 0.134,-0.06 0.134,-0.134 C 0.134,0.06 0.074,0 0,0"
             style="fill:#000000;fill-opacity:1;fill-rule:nonzero;stroke:none"
             id="path40"
             inkscape:connector-curvature="0" /></g><g
           id="g42"
           transform="translate(5.0435,2.417)"
           style="fill:#000000"><path
             d="m 0,0 c -0.099,0 -0.179,0.08 -0.179,0.179 v 4.354 c 0,0.099 0.08,0.179 0.179,0.179 0.099,0 0.179,-0.08 0.179,-0.179 V 0.179 C 0.179,0.08 0.099,0 0,0"
             style="fill:#000000;fill-opacity:1;fill-rule:nonzero;stroke:none"
             id="path44"
             inkscape:connector-curvature="0" /></g><g
           id="g46"
           transform="translate(5.0435,3.6973)"
           style="fill:#000000"><path
             d="m 0,0 h -4.783 c -0.074,0 -0.134,0.06 -0.134,0.134 0,0.075 0.06,0.135 0.134,0.135 H 0 c 0.074,0 0.134,-0.06 0.134,-0.135 C 0.134,0.06 0.074,0 0,0"
             style="fill:#000000;fill-opacity:1;fill-rule:nonzero;stroke:none"
             id="path48"
             inkscape:connector-curvature="0" /></g><g
           id="g50"
           transform="translate(2.0386,2.086)"
           style="fill:#000000"><path
             d="m 0,0 c -0.476,0 -0.863,-0.387 -0.863,-0.863 0,-0.477 0.387,-0.865 0.863,-0.865 0.477,0 0.864,0.388 0.864,0.865 C 0.864,-0.387 0.477,0 0,0 m 0,-2.086 c -0.673,0 -1.222,0.548 -1.222,1.223 0,0.673 0.549,1.221 1.222,1.221 0.674,0 1.223,-0.548 1.223,-1.221 0,-0.675 -0.549,-1.223 -1.223,-1.223"
             style="fill:#000000;fill-opacity:1;fill-rule:nonzero;stroke:none"
             id="path52"
             inkscape:connector-curvature="0" /></g><g
           id="g54"
           transform="translate(7.3882,2.086)"
           style="fill:#000000"><path
             d="m 0,0 c -0.477,0 -0.864,-0.387 -0.864,-0.863 0,-0.477 0.387,-0.865 0.864,-0.865 0.477,0 0.864,0.388 0.864,0.865 C 0.864,-0.387 0.477,0 0,0 m 0,-2.086 c -0.674,0 -1.222,0.548 -1.222,1.223 0,0.673 0.548,1.221 1.222,1.221 0.674,0 1.222,-0.548 1.222,-1.221 0,-0.675 -0.548,-1.223 -1.222,-1.223"
             style="fill:#000000;fill-opacity:1;fill-rule:nonzero;stroke:none"
             id="path56"
             inkscape:connector-curvature="0" /></g><g
           id="g58"
           transform="translate(6.3902,3.8726)"
           style="fill:#000000"><path
             d="m 0,0 h -0.404 c -0.188,0 -0.341,0.153 -0.341,0.341 0,0.188 0.153,0.341 0.341,0.341 H 0 C 0.188,0.682 0.341,0.529 0.341,0.341 0.341,0.153 0.188,0 0,0"
             style="fill:#000000;fill-opacity:1;fill-rule:nonzero;stroke:none"
             id="path60"
             inkscape:connector-curvature="0" /></g></g></g></g></svg>