<?xml version="1.0" encoding="UTF-8" standalone="no"?>
<!-- Created with Inkscape (http://www.inkscape.org/) -->

<svg
   xmlns:dc="http://purl.org/dc/elements/1.1/"
   xmlns:cc="http://creativecommons.org/ns#"
   xmlns:rdf="http://www.w3.org/1999/02/22-rdf-syntax-ns#"
   xmlns:svg="http://www.w3.org/2000/svg"
   xmlns="http://www.w3.org/2000/svg"
   xmlns:sodipodi="http://sodipodi.sourceforge.net/DTD/sodipodi-0.dtd"
   xmlns:inkscape="http://www.inkscape.org/namespaces/inkscape"
   version="1.1"
   id="svg2"
   xml:space="preserve"
   width="13.213667"
   height="11.800133"
   viewBox="0 0 13.213667 11.800133"
   sodipodi:docname="hurts.svg"
   inkscape:version="0.92.3 (2405546, 2018-03-11)"><metadata
     id="metadata8"><rdf:RDF><cc:Work
         rdf:about=""><dc:format>image/svg+xml</dc:format><dc:type
           rdf:resource="http://purl.org/dc/dcmitype/StillImage" /><dc:title></dc:title></cc:Work></rdf:RDF></metadata><defs
     id="defs6"><clipPath
       clipPathUnits="userSpaceOnUse"
       id="clipPath18"><path
         d="M 0,8.85 H 9.91 V 0 H 0 Z"
         id="path16"
         inkscape:connector-curvature="0" /></clipPath></defs><sodipodi:namedview
     pagecolor="#ffffff"
     bordercolor="#666666"
     borderopacity="1"
     objecttolerance="10"
     gridtolerance="10"
     guidetolerance="10"
     inkscape:pageopacity="0"
     inkscape:pageshadow="2"
     inkscape:window-width="640"
     inkscape:window-height="480"
     id="namedview4"
     showgrid="false"
     inkscape:zoom="19.999775"
     inkscape:cx="6.6068335"
     inkscape:cy="5.9000664"
     inkscape:window-x="0"
     inkscape:window-y="0"
     inkscape:window-maximized="0"
     inkscape:current-layer="g10" /><g
     id="g10"
     inkscape:groupmode="layer"
     inkscape:label="hurts"
     transform="matrix(1.3333333,0,0,-1.3333333,0,11.800133)"><g
       id="g12"
       style="fill:#ffffff"><g
         id="g14"
         clip-path="url(#clipPath18)"
         style="fill:#ffffff"><g
           id="g20"
           transform="translate(2.7116,8.4024)"
           style="fill:#ffffff"><path
             d="m 0,0 c -0.744,0 -1.467,-0.382 -1.889,-0.997 -0.415,-0.606 -0.487,-1.346 -0.202,-2.084 1.143,-2.959 3.709,-4.539 4.22,-4.829 0.498,0.218 2.901,1.399 4.378,4.439 0.364,0.75 0.317,1.588 -0.128,2.299 -0.45,0.719 -1.226,1.167 -2.024,1.167 -0.739,0 -1.445,-0.371 -2.043,-1.072 L 2.131,-1.289 1.963,-1.067 C 1.442,-0.379 0.745,0 0,0 m 2.101,-8.402 -0.088,0.045 c -0.13,0.067 -3.195,1.68 -4.522,5.115 -0.34,0.879 -0.25,1.767 0.251,2.499 0.504,0.734 1.369,1.191 2.258,1.191 0.808,0 1.562,-0.366 2.15,-1.036 0.81,0.845 1.637,1.03 2.205,1.03 0.951,0 1.872,-0.528 2.403,-1.377 0.529,-0.844 0.584,-1.84 0.151,-2.731 C 5.182,-7.223 2.314,-8.323 2.193,-8.368 Z"
             style="fill:#ffffff;fill-opacity:1;fill-rule:nonzero;stroke:none"
             id="path22"
             inkscape:connector-curvature="0" /></g><g
           id="g24"
           transform="translate(5.1946,2.189)"
           style="fill:#ffffff"><path
             d="M 0,0 -1.555,3.848 -2.489,1.937 h -1.852 v 0.358 h 1.628 L -1.523,4.727 0.006,0.941 1.16,3.699 1.942,2.295 H 4.09 V 1.937 H 1.731 L 1.206,2.88 Z"
             style="fill:#ffffff;fill-opacity:1;fill-rule:nonzero;stroke:none"
             id="path26"
             inkscape:connector-curvature="0" /></g></g></g></g></svg>