<?xml version="1.0" encoding="UTF-8" standalone="no"?>
<!-- Created with Inkscape (http://www.inkscape.org/) -->

<svg
   xmlns:dc="http://purl.org/dc/elements/1.1/"
   xmlns:cc="http://creativecommons.org/ns#"
   xmlns:rdf="http://www.w3.org/1999/02/22-rdf-syntax-ns#"
   xmlns:svg="http://www.w3.org/2000/svg"
   xmlns="http://www.w3.org/2000/svg"
   xmlns:sodipodi="http://sodipodi.sourceforge.net/DTD/sodipodi-0.dtd"
   xmlns:inkscape="http://www.inkscape.org/namespaces/inkscape"
   version="1.1"
   id="svg2"
   xml:space="preserve"
   width="72"
   height="56"
   viewBox="0 0 72 56"
   sodipodi:docname="mail.svg"
   inkscape:version="0.92.3 (2405546, 2018-03-11)"><metadata
     id="metadata8"><rdf:RDF><cc:Work
         rdf:about=""><dc:format>image/svg+xml</dc:format><dc:type
           rdf:resource="http://purl.org/dc/dcmitype/StillImage" /><dc:title /></cc:Work></rdf:RDF></metadata><defs
     id="defs6"><clipPath
       clipPathUnits="userSpaceOnUse"
       id="clipPath18"><path
         d="M 0,42 H 54 V 0 H 0 Z"
         id="path16"
         inkscape:connector-curvature="0" /></clipPath></defs><sodipodi:namedview
     pagecolor="#ffffff"
     bordercolor="#666666"
     borderopacity="1"
     objecttolerance="10"
     gridtolerance="10"
     guidetolerance="10"
     inkscape:pageopacity="0"
     inkscape:pageshadow="2"
     inkscape:window-width="1600"
     inkscape:window-height="838"
     id="namedview4"
     showgrid="false"
     inkscape:zoom="5.12"
     inkscape:cx="-18.304688"
     inkscape:cy="35.853061"
     inkscape:window-x="-8"
     inkscape:window-y="-8"
     inkscape:window-maximized="1"
     inkscape:current-layer="g10" /><g
     id="g10"
     inkscape:groupmode="layer"
     inkscape:label="mail"
     transform="matrix(1.3333333,0,0,-1.3333333,0,56)"><g
       id="g12"
       style="fill:#8d8d80;fill-opacity:1"><g
         id="g14"
         clip-path="url(#clipPath18)"
         style="fill:#8d8d80;fill-opacity:1"><g
           id="g20"
           transform="translate(52,5)"
           style="fill:#8d8d80;fill-opacity:1"><path
             d="m 0,0 c 0,-1.654 -1.346,-3 -3,-3 h -44 c -1.654,0 -3,1.346 -3,3 v 32 c 0,1.654 1.346,3 3,3 h 44 c 1.654,0 3,-1.346 3,-3 z m -3,37 h -44 c -2.757,0 -5,-2.243 -5,-5 V 0 c 0,-2.757 2.243,-5 5,-5 h 44 c 2.757,0 5,2.243 5,5 v 32 c 0,2.757 -2.243,5 -5,5"
             style="fill:#8d8d80;fill-opacity:1;fill-rule:nonzero;stroke:none"
             id="path22"
             inkscape:connector-curvature="0" /></g><g
           id="g24"
           transform="translate(48.3467,37.7568)"
           style="fill:#8d8d80;fill-opacity:1"><path
             d="m 0,0 -18.973,-16.386 c -1.287,-1.111 -3.461,-1.11 -4.748,0 L -42.693,0 c -0.416,0.359 -1.048,0.316 -1.411,-0.103 -0.361,-0.418 -0.314,-1.05 0.104,-1.411 l 18.973,-16.385 c 1.014,-0.877 2.347,-1.315 3.68,-1.315 1.333,0 2.666,0.439 3.681,1.315 L 1.307,-1.514 C 1.725,-1.153 1.771,-0.521 1.41,-0.103 1.047,0.316 0.415,0.359 0,0"
             style="fill:#8d8d80;fill-opacity:1;fill-rule:nonzero;stroke:none"
             id="path26"
             inkscape:connector-curvature="0" /></g></g></g></g></svg>