<?xml version="1.0" encoding="UTF-8" standalone="no"?>
<!-- Created with Inkscape (http://www.inkscape.org/) -->

<svg
   xmlns:dc="http://purl.org/dc/elements/1.1/"
   xmlns:cc="http://creativecommons.org/ns#"
   xmlns:rdf="http://www.w3.org/1999/02/22-rdf-syntax-ns#"
   xmlns:svg="http://www.w3.org/2000/svg"
   xmlns="http://www.w3.org/2000/svg"
   xmlns:sodipodi="http://sodipodi.sourceforge.net/DTD/sodipodi-0.dtd"
   xmlns:inkscape="http://www.inkscape.org/namespaces/inkscape"
   version="1.1"
   id="svg2"
   xml:space="preserve"
   width="13.370667"
   height="12.608667"
   viewBox="0 0 13.370667 12.608667"
   sodipodi:docname="medphone.svg"
   inkscape:version="0.92.3 (2405546, 2018-03-11)"><metadata
     id="metadata8"><rdf:RDF><cc:Work
         rdf:about=""><dc:format>image/svg+xml</dc:format><dc:type
           rdf:resource="http://purl.org/dc/dcmitype/StillImage" /><dc:title></dc:title></cc:Work></rdf:RDF></metadata><defs
     id="defs6"><clipPath
       clipPathUnits="userSpaceOnUse"
       id="clipPath18"><path
         d="M 0,9.456 H 10.028 V 0 H 0 Z"
         id="path16"
         inkscape:connector-curvature="0" /></clipPath></defs><sodipodi:namedview
     pagecolor="#ffffff"
     bordercolor="#666666"
     borderopacity="1"
     objecttolerance="10"
     gridtolerance="10"
     guidetolerance="10"
     inkscape:pageopacity="0"
     inkscape:pageshadow="2"
     inkscape:window-width="1600"
     inkscape:window-height="838"
     id="namedview4"
     showgrid="false"
     inkscape:zoom="18.717283"
     inkscape:cx="6.6853337"
     inkscape:cy="6.3043337"
     inkscape:window-x="-8"
     inkscape:window-y="-8"
     inkscape:window-maximized="1"
     inkscape:current-layer="g10" /><g
     id="g10"
     inkscape:groupmode="layer"
     inkscape:label="medphone"
     transform="matrix(1.3333333,0,0,-1.3333333,0,12.608667)"><g
       id="g12"><g
         id="g14"
         clip-path="url(#clipPath18)"><g
           id="g20"
           transform="translate(6.7175,0.5713)"><path
             d="m 0,0 c -0.041,0 -0.082,0.019 -0.108,0.055 l -1.728,2.338 c -0.044,0.06 -0.031,0.144 0.028,0.188 0.06,0.043 0.145,0.032 0.189,-0.028 L 0.108,0.215 C 0.152,0.155 0.14,0.071 0.08,0.026 0.056,0.009 0.027,0 0,0"
             style="fill:#000000;fill-opacity:1;fill-rule:nonzero;stroke:none"
             id="path22"
             inkscape:connector-curvature="0" /></g><g
           id="g24"
           transform="translate(1.739,8.208)"><path
             d="m 0,0 c -0.062,0 -0.101,-0.014 -0.133,-0.037 l -0.286,-0.212 c -0.467,-0.344 -0.772,-0.85 -0.858,-1.425 -0.085,-0.575 0.056,-1.148 0.401,-1.615 l 2.66,-3.599 c 0.345,-0.467 0.851,-0.772 1.425,-0.858 0.584,-0.087 1.15,0.058 1.614,0.401 l 0.287,0.212 c 0.042,0.031 0.07,0.078 0.078,0.128 0.008,0.053 -0.004,0.105 -0.037,0.147 l -1.159,1.569 c -0.046,0.063 -0.113,0.105 -0.188,0.12 -0.081,0.017 -0.158,0 -0.224,-0.04 L 2.899,-5.626 C 2.801,-5.685 2.676,-5.661 2.609,-5.569 l -1.982,2.682 c -0.068,0.091 -0.054,0.218 0.031,0.294 l 0.599,0.528 c 0.059,0.052 0.096,0.124 0.103,0.202 0.009,0.076 -0.012,0.153 -0.059,0.216 L 0.143,-0.078 C 0.12,-0.048 0.08,-0.01 0.014,0 Z m 3.536,-8.208 c -0.13,0 -0.261,0.01 -0.393,0.03 -0.688,0.103 -1.296,0.468 -1.711,1.03 l -2.661,3.6 c -0.413,0.56 -0.583,1.249 -0.481,1.939 0.105,0.691 0.47,1.299 1.031,1.712 l 0.286,0.212 c 0.135,0.099 0.304,0.144 0.472,0.118 0.167,-0.025 0.314,-0.114 0.415,-0.25 l 1.159,-1.57 C 1.766,-1.538 1.816,-1.724 1.797,-1.91 1.776,-2.097 1.688,-2.268 1.547,-2.393 l -0.448,-0.396 1.743,-2.359 0.51,0.312 c 0.159,0.097 0.348,0.133 0.534,0.097 0.183,-0.035 0.346,-0.139 0.459,-0.29 L 5.504,-6.598 C 5.605,-6.734 5.646,-6.902 5.621,-7.07 5.597,-7.233 5.505,-7.385 5.371,-7.484 L 5.083,-7.697 C 4.631,-8.031 4.096,-8.208 3.536,-8.208"
             style="fill:#000000;fill-opacity:1;fill-rule:nonzero;stroke:none"
             id="path26"
             inkscape:connector-curvature="0" /></g><g
           id="g28"
           transform="translate(2.9431,5.6806)"><path
             d="m 0,0 c -0.041,0 -0.083,0.019 -0.108,0.055 l -1.728,2.338 c -0.044,0.06 -0.031,0.144 0.028,0.189 0.06,0.043 0.144,0.031 0.189,-0.029 L 0.108,0.215 C 0.151,0.155 0.139,0.071 0.08,0.026 0.056,0.009 0.027,0 0,0"
             style="fill:#000000;fill-opacity:1;fill-rule:nonzero;stroke:none"
             id="path30"
             inkscape:connector-curvature="0" /></g><g
           id="g32"
           transform="translate(7.1481,9.0981)"><path
             d="m 0,0 c -1.391,0 -2.521,-1.031 -2.521,-2.298 0,-1.237 1.067,-2.242 2.429,-2.287 0.051,-0.002 0.1,-0.026 0.131,-0.065 0.033,-0.04 0.048,-0.091 0.04,-0.142 l -0.073,-0.471 0.657,0.731 c 0.024,0.025 0.053,0.043 0.084,0.053 1.062,0.302 1.774,1.179 1.774,2.181 C 2.521,-1.031 1.391,0 0,0 m -0.263,-6.008 c -0.026,0 -0.052,0.006 -0.077,0.017 -0.072,0.034 -0.112,0.111 -0.1,0.189 l 0.135,0.871 c -1.46,0.141 -2.575,1.264 -2.575,2.633 0,1.465 1.292,2.656 2.88,2.656 1.588,0 2.88,-1.191 2.88,-2.656 0,-1.148 -0.795,-2.151 -1.984,-2.511 l -1.026,-1.14 c -0.035,-0.039 -0.084,-0.059 -0.133,-0.059"
             style="fill:#000000;fill-opacity:1;fill-rule:nonzero;stroke:none"
             id="path34"
             inkscape:connector-curvature="0" /></g><g
           id="g36"
           transform="translate(6.8845,5.4638)"><path
             d="m 0,0 h 0.527 v 0.812 c 0,0.099 0.081,0.179 0.18,0.179 H 1.518 V 1.52 H 0.707 c -0.099,0 -0.18,0.08 -0.18,0.179 V 2.511 H 0 V 1.699 C 0,1.6 -0.081,1.52 -0.18,1.52 H -0.991 V 0.991 H -0.18 C -0.081,0.991 0,0.911 0,0.812 Z M 0.707,-0.358 H -0.18 c -0.098,0 -0.178,0.08 -0.178,0.179 v 0.812 h -0.813 c -0.099,0 -0.179,0.08 -0.179,0.179 v 0.887 c 0,0.099 0.08,0.179 0.179,0.179 h 0.813 V 2.69 c 0,0.099 0.08,0.179 0.178,0.179 h 0.887 c 0.099,0 0.179,-0.08 0.179,-0.179 V 1.878 h 0.812 c 0.099,0 0.179,-0.08 0.179,-0.179 V 0.812 C 1.877,0.713 1.797,0.633 1.698,0.633 H 0.886 v -0.812 c 0,-0.099 -0.08,-0.179 -0.179,-0.179"
             style="fill:#000000;fill-opacity:1;fill-rule:nonzero;stroke:none"
             id="path38"
             inkscape:connector-curvature="0" /></g></g></g></g></svg>