<?xml version="1.0" encoding="UTF-8" standalone="no"?>
<!-- Created with Inkscape (http://www.inkscape.org/) -->

<svg
   xmlns:dc="http://purl.org/dc/elements/1.1/"
   xmlns:cc="http://creativecommons.org/ns#"
   xmlns:rdf="http://www.w3.org/1999/02/22-rdf-syntax-ns#"
   xmlns:svg="http://www.w3.org/2000/svg"
   xmlns="http://www.w3.org/2000/svg"
   xmlns:sodipodi="http://sodipodi.sourceforge.net/DTD/sodipodi-0.dtd"
   xmlns:inkscape="http://www.inkscape.org/namespaces/inkscape"
   version="1.1"
   id="svg2"
   xml:space="preserve"
   width="9.7045336"
   height="16.111601"
   viewBox="0 0 9.7045336 16.111601"
   sodipodi:docname="medsister.svg"
   inkscape:version="0.92.3 (2405546, 2018-03-11)"><metadata
     id="metadata8"><rdf:RDF><cc:Work
         rdf:about=""><dc:format>image/svg+xml</dc:format><dc:type
           rdf:resource="http://purl.org/dc/dcmitype/StillImage" /><dc:title></dc:title></cc:Work></rdf:RDF></metadata><defs
     id="defs6"><clipPath
       clipPathUnits="userSpaceOnUse"
       id="clipPath18"><path
         d="M 0,12.084 H 7.278 V 0 H 0 Z"
         id="path16"
         inkscape:connector-curvature="0" /></clipPath></defs><sodipodi:namedview
     pagecolor="#ffffff"
     bordercolor="#666666"
     borderopacity="1"
     objecttolerance="10"
     gridtolerance="10"
     guidetolerance="10"
     inkscape:pageopacity="0"
     inkscape:pageshadow="2"
     inkscape:window-width="640"
     inkscape:window-height="480"
     id="namedview4"
     showgrid="false"
     inkscape:zoom="14.647831"
     inkscape:cx="4.8522668"
     inkscape:cy="8.0558004"
     inkscape:window-x="0"
     inkscape:window-y="0"
     inkscape:window-maximized="0"
     inkscape:current-layer="g10" /><g
     id="g10"
     inkscape:groupmode="layer"
     inkscape:label="medsister"
     transform="matrix(1.3333333,0,0,-1.3333333,0,16.1116)"><g
       id="g12"
       style="fill:#000000"><g
         id="g14"
         clip-path="url(#clipPath18)"
         style="fill:#000000"><g
           id="g20"
           transform="translate(6.8379,3.4439)"
           style="fill:#000000"><path
             d="M 0,0 C -0.123,0 -0.223,0.1 -0.223,0.224 V 4.441 C -0.225,4.52 -0.279,6.394 -3.35,6.394 -5.91,6.394 -6.1,4.502 -6.106,4.422 l 10e-4,-4.15 c 0,-0.124 -0.101,-0.224 -0.225,-0.224 -0.123,0 -0.224,0.1 -0.224,0.224 v 4.169 c 0.003,0.043 0.238,2.4 3.204,2.4 3.534,0 3.575,-2.376 3.575,-2.4 V 0.224 C 0.225,0.1 0.124,0 0,0"
             style="fill:#000000;fill-opacity:1;fill-rule:nonzero;stroke:none"
             id="path22"
             inkscape:connector-curvature="0" /></g><g
           id="g24"
           transform="translate(0.6358,0.4473)"
           style="fill:#000000"><path
             d="m 0,0 h 6.007 c 0.124,0.322 0.187,0.655 0.187,0.994 0,1.531 -1.245,2.777 -2.776,2.777 H 2.588 C 1.058,3.771 -0.189,2.525 -0.189,0.994 -0.189,0.656 -0.124,0.323 0,0 m 6.156,-0.447 h -6.305 c -0.088,0 -0.169,0.052 -0.205,0.133 -0.187,0.421 -0.282,0.861 -0.282,1.308 0,1.778 1.447,3.224 3.224,3.224 h 0.83 C 5.196,4.218 6.643,2.772 6.643,0.994 6.643,0.545 6.548,0.105 6.36,-0.314 6.325,-0.395 6.244,-0.447 6.156,-0.447"
             style="fill:#000000;fill-opacity:1;fill-rule:nonzero;stroke:none"
             id="path26"
             inkscape:connector-curvature="0" /></g><g
           id="g28"
           transform="translate(2.6602,4.1451)"
           style="fill:#000000"><path
             d="M 0,0 0.986,-3.132 2.069,0 Z M 0.979,-3.883 C 0.916,-3.884 0.832,-3.832 0.808,-3.757 l -1.223,3.883 c -0.017,0.054 -0.008,0.113 0.026,0.159 0.034,0.046 0.087,0.073 0.145,0.073 H 2.32 C 2.379,0.358 2.433,0.33 2.467,0.283 2.501,0.236 2.509,0.175 2.49,0.121 L 1.148,-3.762 C 1.123,-3.835 1.056,-3.883 0.979,-3.883"
             style="fill:#000000;fill-opacity:1;fill-rule:nonzero;stroke:none"
             id="path30"
             inkscape:connector-curvature="0" /></g><g
           id="g32"
           transform="translate(3.6534,4.7417)"
           style="fill:#000000"><path
             d="m 0,0 c -1.444,0 -2.597,1.152 -2.597,2.569 0,0.099 0.08,0.179 0.18,0.179 0.099,0 0.179,-0.08 0.179,-0.179 0,-1.219 0.992,-2.211 2.211,-2.211 1.295,0 2.215,0.862 2.215,2.048 0,0.099 0.08,0.179 0.18,0.179 0.1,0 0.179,-0.08 0.179,-0.179 C 2.547,1.035 1.452,0 0,0"
             style="fill:#000000;fill-opacity:1;fill-rule:nonzero;stroke:none"
             id="path34"
             inkscape:connector-curvature="0" /></g><g
           id="g36"
           transform="translate(3.4874,0.3072)"
           style="fill:#000000"><path
             d="m 0,0 c -0.035,0 -0.07,0.014 -0.096,0.04 l -1.071,1.105 c -0.052,0.053 -0.051,0.137 0,0.189 l 0.36,0.359 -1.213,0.251 c -0.038,0.008 -0.072,0.033 -0.089,0.068 -0.02,0.035 -0.023,0.076 -0.007,0.113 l 0.751,1.895 c 0.027,0.07 0.106,0.103 0.174,0.076 0.07,-0.027 0.103,-0.105 0.076,-0.174 L -1.809,2.175 -0.508,1.906 C -0.46,1.896 -0.421,1.86 -0.407,1.813 -0.393,1.766 -0.405,1.714 -0.441,1.68 L -0.883,1.237 0.096,0.228 C 0.147,0.174 0.146,0.089 0.094,0.038 0.067,0.013 0.033,0 0,0"
             style="fill:#000000;fill-opacity:1;fill-rule:nonzero;stroke:none"
             id="path38"
             inkscape:connector-curvature="0" /></g><g
           id="g40"
           transform="translate(3.8155,0.3072)"
           style="fill:#000000"><path
             d="M 0,0 C -0.034,0 -0.068,0.013 -0.094,0.038 -0.147,0.089 -0.148,0.174 -0.097,0.227 L 0.882,1.237 0.439,1.68 C 0.405,1.714 0.392,1.766 0.405,1.813 0.42,1.86 0.459,1.896 0.507,1.906 l 1.3,0.269 -0.693,1.747 C 1.087,3.991 1.121,4.069 1.189,4.096 1.257,4.123 1.336,4.09 1.364,4.02 L 2.116,2.125 C 2.13,2.088 2.128,2.047 2.109,2.012 2.09,1.977 2.057,1.952 2.018,1.944 L 0.806,1.693 1.165,1.334 C 1.218,1.282 1.218,1.198 1.167,1.145 L 0.096,0.041 C 0.069,0.014 0.034,0 0,0"
             style="fill:#000000;fill-opacity:1;fill-rule:nonzero;stroke:none"
             id="path42"
             inkscape:connector-curvature="0" /></g><path
           d="M 5.68,1.111 H 6.148 V 1.395 H 5.68 Z M 6.282,0.842 H 5.546 c -0.075,0 -0.135,0.06 -0.135,0.135 v 0.552 c 0,0.075 0.06,0.135 0.135,0.135 h 0.736 c 0.073,0 0.134,-0.06 0.134,-0.135 V 0.977 C 6.416,0.902 6.355,0.842 6.282,0.842"
           style="fill:#000000;fill-opacity:1;fill-rule:nonzero;stroke:none"
           id="path44"
           inkscape:connector-curvature="0" /><g
           id="g46"
           transform="translate(4.6583,2.9322)"
           style="fill:#000000"><path
             d="m 0,0 h -1.846 c -0.075,0 -0.134,0.06 -0.134,0.134 0,0.074 0.059,0.134 0.134,0.134 H 0 c 0.075,0 0.135,-0.06 0.135,-0.134 C 0.135,0.06 0.075,0 0,0"
             style="fill:#000000;fill-opacity:1;fill-rule:nonzero;stroke:none"
             id="path48"
             inkscape:connector-curvature="0" /></g><g
           id="g50"
           transform="translate(3.5997,10.4253)"
           style="fill:#000000"><path
             d="M 0,0 C 0.527,0 1.008,-0.141 1.391,-0.402 L 2.1,0.497 C 0.661,1.465 -0.662,1.428 -2.049,0.518 L -1.341,-0.38 C -0.962,-0.133 -0.495,0 0,0 m 1.43,-0.937 c -0.054,0 -0.106,0.019 -0.147,0.054 -0.325,0.281 -0.774,0.436 -1.262,0.436 -0.496,0 -0.937,-0.147 -1.262,-0.414 -0.046,-0.037 -0.103,-0.055 -0.167,-0.049 -0.059,0.007 -0.113,0.037 -0.151,0.084 l -0.99,1.254 c -0.038,0.049 -0.055,0.11 -0.046,0.171 0.009,0.06 0.042,0.115 0.092,0.15 C -0.746,2.001 0.903,1.93 2.554,0.725 2.604,0.689 2.635,0.635 2.643,0.574 2.651,0.514 2.635,0.453 2.598,0.405 L 1.604,-0.852 C 1.567,-0.9 1.512,-0.931 1.45,-0.936 1.443,-0.937 1.436,-0.937 1.43,-0.937"
             style="fill:#000000;fill-opacity:1;fill-rule:nonzero;stroke:none"
             id="path52"
             inkscape:connector-curvature="0" /></g><g
           id="g54"
           transform="translate(5.9131,6.9688)"
           style="fill:#000000"><path
             d="M 0,0 H -0.002 C -1.116,0.015 -2.063,0.812 -2.414,1.151 -3.24,0.227 -4.537,0.165 -4.595,0.163 c -0.09,-0.02 -0.18,0.072 -0.185,0.172 -0.004,0.098 0.072,0.182 0.171,0.186 0.013,0 1.333,0.066 2.041,1.005 0.031,0.042 0.081,0.068 0.134,0.071 0.058,0.013 0.105,-0.019 0.141,-0.059 0.01,-0.012 1.07,-1.164 2.296,-1.18 C 0.102,0.357 0.181,0.276 0.18,0.177 0.179,0.079 0.099,0 0,0"
             style="fill:#000000;fill-opacity:1;fill-rule:nonzero;stroke:none"
             id="path56"
             inkscape:connector-curvature="0" /></g><g
           id="g58"
           transform="translate(2.6836,6.7261)"
           style="fill:#000000"><path
             d="m 0,0 c 0,-0.106 -0.086,-0.192 -0.192,-0.192 -0.106,0 -0.193,0.086 -0.193,0.192 0,0.106 0.087,0.192 0.193,0.192 C -0.086,0.192 0,0.106 0,0"
             style="fill:#000000;fill-opacity:1;fill-rule:nonzero;stroke:none"
             id="path60"
             inkscape:connector-curvature="0" /></g><g
           id="g62"
           transform="translate(4.8516,6.7261)"
           style="fill:#000000"><path
             d="m 0,0 c 0,-0.106 -0.087,-0.192 -0.193,-0.192 -0.106,0 -0.192,0.086 -0.192,0.192 0,0.106 0.086,0.192 0.192,0.192 C -0.087,0.192 0,0.106 0,0"
             style="fill:#000000;fill-opacity:1;fill-rule:nonzero;stroke:none"
             id="path64"
             inkscape:connector-curvature="0" /></g></g></g></g></svg>