<?xml version="1.0" encoding="UTF-8" standalone="no"?>
<!-- Created with Inkscape (http://www.inkscape.org/) -->

<svg
   xmlns:dc="http://purl.org/dc/elements/1.1/"
   xmlns:cc="http://creativecommons.org/ns#"
   xmlns:rdf="http://www.w3.org/1999/02/22-rdf-syntax-ns#"
   xmlns:svg="http://www.w3.org/2000/svg"
   xmlns="http://www.w3.org/2000/svg"
   xmlns:sodipodi="http://sodipodi.sourceforge.net/DTD/sodipodi-0.dtd"
   xmlns:inkscape="http://www.inkscape.org/namespaces/inkscape"
   version="1.1"
   id="svg2"
   xml:space="preserve"
   width="10.614867"
   height="13.213907"
   viewBox="0 0 10.614867 13.213907"
   sodipodi:docname="monokle.svg"
   inkscape:version="0.92.3 (2405546, 2018-03-11)"><metadata
     id="metadata8"><rdf:RDF><cc:Work
         rdf:about=""><dc:format>image/svg+xml</dc:format><dc:type
           rdf:resource="http://purl.org/dc/dcmitype/StillImage" /><dc:title></dc:title></cc:Work></rdf:RDF></metadata><defs
     id="defs6"><clipPath
       clipPathUnits="userSpaceOnUse"
       id="clipPath18"><path
         d="M 0,9.91 H 7.961 V 0 H 0 Z"
         id="path16"
         inkscape:connector-curvature="0" /></clipPath></defs><sodipodi:namedview
     pagecolor="#ffffff"
     bordercolor="#666666"
     borderopacity="1"
     objecttolerance="10"
     gridtolerance="10"
     guidetolerance="10"
     inkscape:pageopacity="0"
     inkscape:pageshadow="2"
     inkscape:window-width="640"
     inkscape:window-height="480"
     id="namedview4"
     showgrid="false"
     inkscape:zoom="17.859971"
     inkscape:cx="5.3074336"
     inkscape:cy="6.6069536"
     inkscape:window-x="0"
     inkscape:window-y="0"
     inkscape:window-maximized="0"
     inkscape:current-layer="g10" /><g
     id="g10"
     inkscape:groupmode="layer"
     inkscape:label="monokle"
     transform="matrix(1.3333333,0,0,-1.3333333,0,13.213907)"><g
       id="g12"
       style="fill:#ffffff"><g
         id="g14"
         clip-path="url(#clipPath18)"
         style="fill:#ffffff"><path
           d="M 0.764,2.373 H 4.8 V 2.607 H 0.764 Z M 4.903,2.104 H 0.662 C 0.606,2.104 0.56,2.165 0.56,2.239 v 0.503 c 0,0.074 0.046,0.134 0.102,0.134 h 4.241 c 0.056,0 0.102,-0.06 0.102,-0.134 V 2.239 C 5.005,2.165 4.959,2.104 4.903,2.104"
           style="fill:#ffffff;fill-opacity:1;fill-rule:nonzero;stroke:none"
           id="path20"
           inkscape:connector-curvature="0" /><path
           d="M 0.358,0.358 H 7.601 V 1.004 H 0.358 Z M 7.781,0 H 0.179 C 0.08,0 0,0.08 0,0.179 v 1.005 c 0,0.099 0.08,0.179 0.179,0.179 h 7.602 c 0.099,0 0.18,-0.08 0.18,-0.179 V 0.179 C 7.961,0.08 7.88,0 7.781,0"
           style="fill:#ffffff;fill-opacity:1;fill-rule:nonzero;stroke:none"
           id="path22"
           inkscape:connector-curvature="0" /><g
           id="g24"
           transform="translate(4.5859,1.3813)"
           style="fill:#ffffff"><path
             d="M 0,0 2.94,-0.017 C 3.469,4.322 1.109,5.323 0.376,5.528 L -0.07,4.831 C 0.557,4.245 0.899,3.558 0.948,2.789 1.024,1.585 0.366,0.503 0,0 m 3.098,-0.376 v 0 l -3.467,0.02 c -0.07,0.001 -0.134,0.042 -0.163,0.107 -0.029,0.063 -0.017,0.139 0.03,0.191 C -0.49,-0.044 0.686,1.296 0.59,2.768 0.544,3.483 0.205,4.122 -0.42,4.665 -0.487,4.723 -0.502,4.821 -0.453,4.896 L 0.144,5.83 C 0.183,5.893 0.261,5.925 0.334,5.908 0.948,5.769 3.957,4.829 3.275,-0.221 3.264,-0.31 3.188,-0.376 3.098,-0.376"
             style="fill:#ffffff;fill-opacity:1;fill-rule:nonzero;stroke:none"
             id="path26"
             inkscape:connector-curvature="0" /></g><g
           id="g28"
           transform="translate(3.7086,9.2742)"
           style="fill:#ffffff"><path
             d="M 0,0 1.187,-0.335 1.281,0.002 0.096,0.336 Z m 1.279,-0.635 c -0.011,0 -0.024,0.002 -0.036,0.005 l -1.445,0.408 c -0.034,0.01 -0.064,0.033 -0.081,0.064 -0.017,0.031 -0.022,0.068 -0.012,0.102 l 0.17,0.595 c 0.02,0.071 0.095,0.112 0.166,0.092 L 1.483,0.224 C 1.555,0.203 1.596,0.129 1.576,0.058 L 1.409,-0.537 C 1.399,-0.571 1.376,-0.6 1.346,-0.618 1.325,-0.629 1.303,-0.635 1.279,-0.635"
             style="fill:#ffffff;fill-opacity:1;fill-rule:nonzero;stroke:none"
             id="path30"
             inkscape:connector-curvature="0" /></g><g
           id="g32"
           transform="translate(2.4609,5.4995)"
           style="fill:#ffffff"><path
             d="m 0,0 1.432,-0.403 0.82,2.911 -1.431,0.404 z m 1.556,-0.804 c -0.017,0 -0.034,0.003 -0.05,0.007 l -1.776,0.501 c -0.045,0.013 -0.084,0.044 -0.107,0.085 -0.024,0.042 -0.029,0.09 -0.017,0.136 L 0.525,3.182 C 0.553,3.276 0.65,3.331 0.747,3.305 L 2.522,2.804 C 2.617,2.777 2.673,2.678 2.645,2.583 L 1.727,-0.673 C 1.715,-0.719 1.685,-0.757 1.643,-0.781 1.615,-0.796 1.585,-0.804 1.556,-0.804"
             style="fill:#ffffff;fill-opacity:1;fill-rule:nonzero;stroke:none"
             id="path34"
             inkscape:connector-curvature="0" /></g><g
           id="g36"
           transform="translate(3.082,8.835)"
           style="fill:#ffffff"><path
             d="m 0,0 2.031,-0.575 0.088,0.313 -2.031,0.573 z m 2.125,-0.875 c -0.012,0 -0.024,0.001 -0.036,0.005 l -2.291,0.648 c -0.071,0.02 -0.112,0.094 -0.093,0.166 l 0.16,0.57 c 0.011,0.034 0.033,0.063 0.065,0.08 0.03,0.018 0.066,0.023 0.101,0.012 L 2.32,-0.04 C 2.393,-0.06 2.434,-0.134 2.414,-0.205 L 2.255,-0.777 C 2.244,-0.811 2.222,-0.84 2.19,-0.858 2.17,-0.869 2.148,-0.875 2.125,-0.875"
             style="fill:#ffffff;fill-opacity:1;fill-rule:nonzero;stroke:none"
             id="path38"
             inkscape:connector-curvature="0" /></g><g
           id="g40"
           transform="translate(1.9808,4.9996)"
           style="fill:#ffffff"><path
             d="m 0,0 2.13,-0.601 0.072,0.26 -2.129,0.601 z m 2.223,-0.9 c -0.013,0 -0.025,0.001 -0.037,0.004 l -2.388,0.674 c -0.034,0.01 -0.064,0.033 -0.081,0.064 -0.018,0.03 -0.023,0.068 -0.012,0.102 l 0.147,0.518 c 0.02,0.071 0.096,0.112 0.166,0.093 L 2.405,-0.119 C 2.477,-0.14 2.518,-0.213 2.498,-0.285 L 2.352,-0.802 C 2.343,-0.837 2.319,-0.866 2.289,-0.883 2.269,-0.895 2.246,-0.9 2.223,-0.9"
             style="fill:#ffffff;fill-opacity:1;fill-rule:nonzero;stroke:none"
             id="path42"
             inkscape:connector-curvature="0" /></g><g
           id="g44"
           transform="translate(2.4779,4.2144)"
           style="fill:#ffffff"><path
             d="M 0,0 0.787,-0.223 0.859,0.037 0.072,0.26 Z m 0.88,-0.523 c -0.012,0 -0.025,0.002 -0.036,0.005 l -1.047,0.296 c -0.034,0.01 -0.063,0.033 -0.08,0.064 -0.019,0.031 -0.023,0.068 -0.013,0.102 l 0.147,0.518 c 0.02,0.071 0.095,0.112 0.166,0.093 L 1.062,0.259 C 1.134,0.239 1.175,0.165 1.155,0.094 L 1.01,-0.425 C 1,-0.459 0.977,-0.488 0.946,-0.506 0.926,-0.517 0.903,-0.523 0.88,-0.523"
             style="fill:#ffffff;fill-opacity:1;fill-rule:nonzero;stroke:none"
             id="path46"
             inkscape:connector-curvature="0" /></g><g
           id="g48"
           transform="translate(4.3759,7.4531)"
           style="fill:#ffffff"><path
             d="m 0,0 c -0.359,0 -0.632,-0.261 -0.646,-0.594 -0.014,-0.342 0.253,-0.632 0.594,-0.646 l 0.058,-0.001 c 0.405,0 0.569,0.167 0.587,0.595 C 0.607,-0.304 0.342,-0.014 0,0 m 0.006,-1.51 -0.068,0.002 c -0.491,0.021 -0.872,0.436 -0.852,0.925 0.019,0.478 0.41,0.852 0.889,0.852 0.002,0 0.036,0 0.037,0 C 0.501,0.248 0.883,-0.167 0.862,-0.658 0.838,-1.223 0.551,-1.51 0.006,-1.51"
             style="fill:#ffffff;fill-opacity:1;fill-rule:nonzero;stroke:none"
             id="path50"
             inkscape:connector-curvature="0" /></g><g
           id="g52"
           transform="translate(5.0408,6.804)"
           style="fill:#ffffff"><path
             d="m 0,0 c -0.016,-0.382 -0.337,-0.679 -0.719,-0.661 -0.382,0.015 -0.68,0.337 -0.663,0.719 0.018,0.384 0.338,0.679 0.723,0.662 C -0.279,0.704 0.016,0.383 0,0"
             style="fill:#ffffff;fill-opacity:1;fill-rule:nonzero;stroke:none"
             id="path54"
             inkscape:connector-curvature="0" /></g></g></g></g></svg>