<?xml version="1.0" encoding="UTF-8" standalone="no"?>
<!-- Created with Inkscape (http://www.inkscape.org/) -->

<svg
   xmlns:dc="http://purl.org/dc/elements/1.1/"
   xmlns:cc="http://creativecommons.org/ns#"
   xmlns:rdf="http://www.w3.org/1999/02/22-rdf-syntax-ns#"
   xmlns:svg="http://www.w3.org/2000/svg"
   xmlns="http://www.w3.org/2000/svg"
   xmlns:sodipodi="http://sodipodi.sourceforge.net/DTD/sodipodi-0.dtd"
   xmlns:inkscape="http://www.inkscape.org/namespaces/inkscape"
   version="1.1"
   id="svg2"
   xml:space="preserve"
   width="10.152853"
   height="8.8794537"
   viewBox="0 0 10.152853 8.8794537"
   sodipodi:docname="pills.svg"
   inkscape:version="0.92.3 (2405546, 2018-03-11)"><metadata
     id="metadata8"><rdf:RDF><cc:Work
         rdf:about=""><dc:format>image/svg+xml</dc:format><dc:type
           rdf:resource="http://purl.org/dc/dcmitype/StillImage" /><dc:title></dc:title></cc:Work></rdf:RDF></metadata><defs
     id="defs6"><clipPath
       clipPathUnits="userSpaceOnUse"
       id="clipPath18"><path
         d="M 0,6.66 H 7.615 V 0 H 0 Z"
         id="path16"
         inkscape:connector-curvature="0" /></clipPath></defs><sodipodi:namedview
     pagecolor="#ffffff"
     bordercolor="#666666"
     borderopacity="1"
     objecttolerance="10"
     gridtolerance="10"
     guidetolerance="10"
     inkscape:pageopacity="0"
     inkscape:pageshadow="2"
     inkscape:window-width="640"
     inkscape:window-height="480"
     id="namedview4"
     showgrid="false"
     inkscape:zoom="26.578212"
     inkscape:cx="5.0764265"
     inkscape:cy="4.4397268"
     inkscape:window-x="0"
     inkscape:window-y="0"
     inkscape:window-maximized="0"
     inkscape:current-layer="g10" /><g
     id="g10"
     inkscape:groupmode="layer"
     inkscape:label="pills"
     transform="matrix(1.3333333,0,0,-1.3333333,0,8.8794533)"><g
       id="g12"
       style="fill:#ffffff"><g
         id="g14"
         clip-path="url(#clipPath18)"
         style="fill:#ffffff"><g
           id="g20"
           transform="translate(1.4022,5.2949)"
           style="fill:#ffffff"><path
             d="M 0,0 C -0.22,0 -0.434,-0.077 -0.605,-0.216 -1.012,-0.549 -1.073,-1.152 -0.739,-1.56 l 2.401,-2.937 c 0.322,-0.394 0.947,-0.459 1.344,-0.135 0.197,0.162 0.32,0.39 0.345,0.644 0.026,0.254 -0.049,0.503 -0.21,0.7 L 0.739,-0.351 C 0.558,-0.128 0.288,0 0,0 m 2.402,-5.295 c -0.423,0 -0.819,0.188 -1.087,0.515 l -2.401,2.937 c -0.489,0.599 -0.401,1.484 0.198,1.974 0.579,0.472 1.503,0.378 1.974,-0.198 L 3.487,-3.004 C 3.977,-3.603 3.888,-4.489 3.289,-4.979 3.039,-5.183 2.725,-5.295 2.402,-5.295"
             style="fill:#ffffff;fill-opacity:1;fill-rule:nonzero;stroke:none"
             id="path22"
             inkscape:connector-curvature="0" /></g><g
           id="g24"
           transform="translate(1.6902,1.9008)"
           style="fill:#ffffff"><path
             d="m 0,0 c -0.065,0 -0.129,0.028 -0.174,0.082 -0.077,0.096 -0.063,0.237 0.032,0.315 L 1.684,1.89 C 1.78,1.968 1.921,1.954 1.999,1.858 2.077,1.762 2.063,1.621 1.967,1.543 L 0.142,0.05 C 0.1,0.016 0.05,0 0,0"
             style="fill:#ffffff;fill-opacity:1;fill-rule:nonzero;stroke:none"
             id="path26"
             inkscape:connector-curvature="0" /></g><g
           id="g28"
           transform="translate(5.9305,6.2119)"
           style="fill:#ffffff"><path
             d="m 0,0 c -0.284,0 -0.561,-0.099 -0.782,-0.279 -0.255,-0.209 -0.414,-0.505 -0.447,-0.833 -0.033,-0.329 0.064,-0.651 0.272,-0.907 0.416,-0.507 1.23,-0.592 1.741,-0.175 0.527,0.432 0.606,1.213 0.174,1.74 C 0.722,-0.165 0.373,0 0,0 m 0.002,-2.92 c -0.509,0 -0.984,0.225 -1.305,0.618 -0.285,0.348 -0.417,0.786 -0.372,1.234 0.045,0.448 0.261,0.851 0.61,1.135 C -0.766,0.313 -0.387,0.448 0,0.448 0.509,0.448 0.984,0.223 1.305,-0.17 1.893,-0.889 1.785,-1.952 1.067,-2.541 0.767,-2.786 0.389,-2.92 0.002,-2.92"
             style="fill:#ffffff;fill-opacity:1;fill-rule:nonzero;stroke:none"
             id="path30"
             inkscape:connector-curvature="0" /></g><g
           id="g32"
           transform="translate(5.492,3.3613)"
           style="fill:#ffffff"><path
             d="m 0,0 c -0.02,0 -0.039,0.003 -0.06,0.008 -0.119,0.034 -0.188,0.157 -0.156,0.276 l 0.77,2.784 C 0.586,3.187 0.709,3.256 0.829,3.224 0.948,3.191 1.019,3.068 0.985,2.949 L 0.216,0.165 C 0.188,0.065 0.098,0 0,0"
             style="fill:#ffffff;fill-opacity:1;fill-rule:nonzero;stroke:none"
             id="path34"
             inkscape:connector-curvature="0" /></g></g></g></g></svg>