<?xml version="1.0" encoding="UTF-8" standalone="no"?>
<!-- Created with Inkscape (http://www.inkscape.org/) -->

<svg
   xmlns:dc="http://purl.org/dc/elements/1.1/"
   xmlns:cc="http://creativecommons.org/ns#"
   xmlns:rdf="http://www.w3.org/1999/02/22-rdf-syntax-ns#"
   xmlns:svg="http://www.w3.org/2000/svg"
   xmlns="http://www.w3.org/2000/svg"
   xmlns:sodipodi="http://sodipodi.sourceforge.net/DTD/sodipodi-0.dtd"
   xmlns:inkscape="http://www.inkscape.org/namespaces/inkscape"
   version="1.1"
   id="svg2"
   xml:space="preserve"
   width="11.22772"
   height="12.054"
   viewBox="0 0 11.22772 12.054"
   sodipodi:docname="react.svg"
   inkscape:version="0.92.3 (2405546, 2018-03-11)"><metadata
     id="metadata8"><rdf:RDF><cc:Work
         rdf:about=""><dc:format>image/svg+xml</dc:format><dc:type
           rdf:resource="http://purl.org/dc/dcmitype/StillImage" /><dc:title></dc:title></cc:Work></rdf:RDF></metadata><defs
     id="defs6"><clipPath
       clipPathUnits="userSpaceOnUse"
       id="clipPath18"><path
         d="M 0,9.04 H 8.421 V 0 H 0 Z"
         id="path16"
         inkscape:connector-curvature="0" /></clipPath></defs><sodipodi:namedview
     pagecolor="#ffffff"
     bordercolor="#666666"
     borderopacity="1"
     objecttolerance="10"
     gridtolerance="10"
     guidetolerance="10"
     inkscape:pageopacity="0"
     inkscape:pageshadow="2"
     inkscape:window-width="640"
     inkscape:window-height="480"
     id="namedview4"
     showgrid="false"
     inkscape:zoom="19.578563"
     inkscape:cx="5.6138601"
     inkscape:cy="6.027"
     inkscape:window-x="0"
     inkscape:window-y="0"
     inkscape:window-maximized="0"
     inkscape:current-layer="g10" /><g
     id="g10"
     inkscape:groupmode="layer"
     inkscape:label="react"
     transform="matrix(1.3333333,0,0,-1.3333333,0,12.054)"><g
       id="g12"
       style="fill:#ffffff"><g
         id="g14"
         clip-path="url(#clipPath18)"
         style="fill:#ffffff"><g
           id="g20"
           transform="translate(4.3403,8.6821)"
           style="fill:#ffffff"><path
             d="m 0,0 c -0.787,0 -1.629,-1.672 -1.629,-4.162 0,-2.489 0.842,-4.162 1.629,-4.162 0.787,0 1.63,1.673 1.63,4.162 C 1.63,-1.672 0.787,0 0,0 m 0,-8.682 c -1.114,0 -1.987,1.986 -1.987,4.52 0,2.535 0.873,4.52 1.987,4.52 1.115,0 1.988,-1.985 1.988,-4.52 0,-2.534 -0.873,-4.52 -1.988,-4.52"
             style="fill:#ffffff;fill-opacity:1;fill-rule:nonzero;stroke:none"
             id="path22"
             inkscape:connector-curvature="0" /></g><g
           id="g24"
           transform="translate(1.8296,6.9766)"
           style="fill:#ffffff"><path
             d="m 0,0 c -0.571,0 -0.971,-0.155 -1.127,-0.435 -0.194,-0.35 -0.021,-0.91 0.474,-1.538 0.537,-0.678 1.38,-1.356 2.373,-1.907 1.163,-0.647 2.398,-1.033 3.302,-1.033 0.571,0 0.971,0.155 1.126,0.435 0.195,0.351 0.023,0.911 -0.473,1.538 C 5.139,-2.261 4.296,-1.584 3.303,-1.032 2.14,-0.386 0.905,0 0,0 m 5.022,-5.27 c -0.977,0 -2.244,0.392 -3.476,1.076 -1.034,0.574 -1.915,1.284 -2.48,2 -0.598,0.757 -0.778,1.444 -0.506,1.933 0.225,0.405 0.723,0.619 1.44,0.619 0.977,0 2.245,-0.393 3.477,-1.077 C 4.511,-1.293 5.391,-2.003 5.956,-2.718 6.555,-3.475 6.734,-4.162 6.461,-4.651 6.237,-5.057 5.739,-5.27 5.022,-5.27"
             style="fill:#ffffff;fill-opacity:1;fill-rule:nonzero;stroke:none"
             id="path26"
             inkscape:connector-curvature="0" /></g><g
           id="g28"
           transform="translate(6.8486,6.9693)"
           style="fill:#ffffff"><path
             d="m 0,0 c -0.904,0 -2.136,-0.382 -3.295,-1.021 -0.995,-0.549 -1.84,-1.225 -2.378,-1.901 -0.498,-0.626 -0.673,-1.185 -0.479,-1.536 0.156,-0.283 0.559,-0.438 1.135,-0.438 0.904,0 2.136,0.381 3.296,1.02 0.995,0.549 1.839,1.225 2.378,1.901 0.498,0.626 0.673,1.185 0.479,1.536 C 0.98,-0.156 0.577,0 0,0 m -5.017,-5.254 c -0.723,0 -1.224,0.215 -1.449,0.624 -0.271,0.489 -0.089,1.175 0.512,1.931 0.567,0.713 1.45,1.42 2.486,1.991 1.228,0.678 2.492,1.066 3.468,1.066 0.724,0 1.225,-0.216 1.45,-0.625 0.271,-0.489 0.089,-1.175 -0.513,-1.931 -0.567,-0.713 -1.45,-1.42 -2.485,-1.991 -1.229,-0.677 -2.493,-1.065 -3.469,-1.065"
             style="fill:#ffffff;fill-opacity:1;fill-rule:nonzero;stroke:none"
             id="path30"
             inkscape:connector-curvature="0" /></g><g
           id="g32"
           transform="translate(4.3403,4.8819)"
           style="fill:#ffffff"><path
             d="m 0,0 c -0.199,0 -0.36,-0.162 -0.36,-0.361 0,-0.199 0.161,-0.36 0.36,-0.36 0.199,0 0.361,0.161 0.361,0.36 C 0.361,-0.162 0.199,0 0,0 m 0,-1.08 c -0.396,0 -0.719,0.323 -0.719,0.719 0,0.397 0.323,0.719 0.719,0.719 0.396,0 0.719,-0.322 0.719,-0.719 C 0.719,-0.757 0.396,-1.08 0,-1.08"
             style="fill:#ffffff;fill-opacity:1;fill-rule:nonzero;stroke:none"
             id="path34"
             inkscape:connector-curvature="0" /></g><g
           id="g36"
           transform="translate(5.958,0.9741)"
           style="fill:#ffffff"><path
             d="m 0,0 c 0,-0.293 -0.238,-0.531 -0.531,-0.531 -0.293,0 -0.531,0.238 -0.531,0.531 0,0.293 0.238,0.531 0.531,0.531 C -0.238,0.531 0,0.293 0,0"
             style="fill:#ffffff;fill-opacity:1;fill-rule:nonzero;stroke:none"
             id="path38"
             inkscape:connector-curvature="0" /></g><g
           id="g40"
           transform="translate(1.0615,5.2891)"
           style="fill:#ffffff"><path
             d="m 0,0 c 0,-0.293 -0.238,-0.531 -0.531,-0.531 -0.293,0 -0.53,0.238 -0.53,0.531 0,0.293 0.237,0.531 0.53,0.531 C -0.238,0.531 0,0.293 0,0"
             style="fill:#ffffff;fill-opacity:1;fill-rule:nonzero;stroke:none"
             id="path42"
             inkscape:connector-curvature="0" /></g><g
           id="g44"
           transform="translate(7.5703,7.1558)"
           style="fill:#ffffff"><path
             d="m 0,0 c 0,-0.293 -0.238,-0.531 -0.531,-0.531 -0.293,0 -0.53,0.238 -0.53,0.531 0,0.293 0.237,0.531 0.53,0.531 C -0.238,0.531 0,0.293 0,0"
             style="fill:#ffffff;fill-opacity:1;fill-rule:nonzero;stroke:none"
             id="path46"
             inkscape:connector-curvature="0" /></g></g></g></g></svg>