<?xml version="1.0" encoding="UTF-8" standalone="no"?>
<!-- Generator: Adobe Illustrator 19.0.0, SVG Export Plug-In . SVG Version: 6.00 Build 0)  -->

<svg
   xmlns:dc="http://purl.org/dc/elements/1.1/"
   xmlns:cc="http://creativecommons.org/ns#"
   xmlns:rdf="http://www.w3.org/1999/02/22-rdf-syntax-ns#"
   xmlns:svg="http://www.w3.org/2000/svg"
   xmlns="http://www.w3.org/2000/svg"
   xmlns:sodipodi="http://sodipodi.sourceforge.net/DTD/sodipodi-0.dtd"
   xmlns:inkscape="http://www.inkscape.org/namespaces/inkscape"
   version="1.1"
   id="Capa_1"
   x="0px"
   y="0px"
   viewBox="0 0 489.5 489.5"
   style="enable-background:new 0 0 489.5 489.5;"
   xml:space="preserve"
   width="512px"
   height="512px"
   sodipodi:docname="smartphone.svg"
   inkscape:version="0.92.3 (2405546, 2018-03-11)"><metadata
   id="metadata45"><rdf:RDF><cc:Work
       rdf:about=""><dc:format>image/svg+xml</dc:format><dc:type
         rdf:resource="http://purl.org/dc/dcmitype/StillImage" /></cc:Work></rdf:RDF></metadata><defs
   id="defs43" /><sodipodi:namedview
   pagecolor="#ffffff"
   bordercolor="#666666"
   borderopacity="1"
   objecttolerance="10"
   gridtolerance="10"
   guidetolerance="10"
   inkscape:pageopacity="0"
   inkscape:pageshadow="2"
   inkscape:window-width="1600"
   inkscape:window-height="838"
   id="namedview41"
   showgrid="false"
   inkscape:zoom="0.65186405"
   inkscape:cx="-5.7794432"
   inkscape:cy="298.55125"
   inkscape:window-x="-8"
   inkscape:window-y="-8"
   inkscape:window-maximized="1"
   inkscape:current-layer="Capa_1" />
<g
   id="g8"
   transform="matrix(1.1088068,0,0,1,-18.563901,0)">
	<g
   id="g6">
		<path
   d="M 386.28341,452.86665 385.55009,38.733324 C 385.51308,17.833356 375.15,0 354.15,0 h -218.8 c -20.9,0 -32.13341,17 -32.13341,38 v 413.5 c 0,16.50006 11.86673,30.66676 32.86673,30.66676 h 218.8 c 20.9,-0.1 31.43076,-11.97844 31.40009,-29.30011 z M 121.85,88.1 h 245.7 v 278.2 h -245.7 z m 12.76668,-70.933237 h 218.8 C 360.81668,17.166763 367.65,30.5 367.65,38 V 70.199913 H 121.85 V 38 c 0,-7.5 5.36668,-20.833237 12.76668,-20.833237 z M 121.85,451.4 v -65.09994 h 245.7 V 451.4 c 0,7.4 -6,13.5 -13.5,13.5 h -218.7 c -7.4,0 -13.5,-6 -13.5,-13.5 z"
   id="path2"
   inkscape:connector-curvature="0"
   style="fill:#8d8d8d"
   sodipodi:nodetypes="ssssssscscccccssssccscsccssc" />
		<path
   d="m 270.28332,420.26662 h -49.7 c -6.8,0 -13.03332,1.83338 -13.03332,8.63338 0,6.8 5.5,7.16673 12.3,7.16673 h 49.7 c 6.8,0 12.3,-0.36673 12.3,-7.16673 0,-6.8 -4.76668,-8.63338 -11.56668,-8.63338 z"
   id="path4"
   inkscape:connector-curvature="0"
   style="fill:#8d8d8d"
   sodipodi:nodetypes="sssssss" />
	</g>
</g>
<g
   id="g10">
</g>
<g
   id="g12">
</g>
<g
   id="g14">
</g>
<g
   id="g16">
</g>
<g
   id="g18">
</g>
<g
   id="g20">
</g>
<g
   id="g22">
</g>
<g
   id="g24">
</g>
<g
   id="g26">
</g>
<g
   id="g28">
</g>
<g
   id="g30">
</g>
<g
   id="g32">
</g>
<g
   id="g34">
</g>
<g
   id="g36">
</g>
<g
   id="g38">
</g>
</svg>