<?xml version="1.0" encoding="UTF-8" standalone="no"?>
<!-- Created with Inkscape (http://www.inkscape.org/) -->

<svg
   xmlns:dc="http://purl.org/dc/elements/1.1/"
   xmlns:cc="http://creativecommons.org/ns#"
   xmlns:rdf="http://www.w3.org/1999/02/22-rdf-syntax-ns#"
   xmlns:svg="http://www.w3.org/2000/svg"
   xmlns="http://www.w3.org/2000/svg"
   xmlns:sodipodi="http://sodipodi.sourceforge.net/DTD/sodipodi-0.dtd"
   xmlns:inkscape="http://www.inkscape.org/namespaces/inkscape"
   version="1.1"
   id="svg2"
   xml:space="preserve"
   width="12.038387"
   height="12.348267"
   viewBox="0 0 12.038387 12.348267"
   sodipodi:docname="vilka.svg"
   inkscape:version="0.92.3 (2405546, 2018-03-11)"><metadata
     id="metadata8"><rdf:RDF><cc:Work
         rdf:about=""><dc:format>image/svg+xml</dc:format><dc:type
           rdf:resource="http://purl.org/dc/dcmitype/StillImage" /><dc:title></dc:title></cc:Work></rdf:RDF></metadata><defs
     id="defs6"><clipPath
       clipPathUnits="userSpaceOnUse"
       id="clipPath18"><path
         d="M 0,9.261 H 9.029 V 0 H 0 Z"
         id="path16"
         inkscape:connector-curvature="0" /></clipPath></defs><sodipodi:namedview
     pagecolor="#ffffff"
     bordercolor="#666666"
     borderopacity="1"
     objecttolerance="10"
     gridtolerance="10"
     guidetolerance="10"
     inkscape:pageopacity="0"
     inkscape:pageshadow="2"
     inkscape:window-width="1600"
     inkscape:window-height="838"
     id="namedview4"
     showgrid="false"
     inkscape:zoom="19.111994"
     inkscape:cx="6.0191936"
     inkscape:cy="6.1741333"
     inkscape:window-x="-8"
     inkscape:window-y="-8"
     inkscape:window-maximized="1"
     inkscape:current-layer="g10" /><g
     id="g10"
     inkscape:groupmode="layer"
     inkscape:label="vilka"
     transform="matrix(1.3333333,0,0,-1.3333333,0,12.348267)"><g
       id="g12"><g
         id="g14"
         clip-path="url(#clipPath18)"><g
           id="g20"
           transform="translate(3.5737,3.002)"><path
             d="m 0,0 h -1.972 c -0.427,0 -0.83,0.167 -1.133,0.469 -0.303,0.303 -0.469,0.705 -0.469,1.133 v 2.924 c 0,0.183 0.071,0.355 0.199,0.483 0.129,0.129 0.3,0.199 0.482,0.199 h 0.588 c 0.124,0 0.224,-0.1 0.224,-0.224 0,-0.123 -0.1,-0.223 -0.224,-0.223 H -2.893 C -2.956,4.761 -3.015,4.736 -3.059,4.692 -3.102,4.648 -3.126,4.59 -3.126,4.526 V 1.602 c 0,-0.308 0.12,-0.598 0.337,-0.816 C -2.57,0.568 -2.28,0.447 -1.972,0.447 H 0 c 0.124,0 0.224,-0.1 0.224,-0.223 C 0.224,0.1 0.124,0 0,0"
             style="fill:#000000;fill-opacity:1;fill-rule:nonzero;stroke:none"
             id="path22"
             inkscape:connector-curvature="0" /></g><g
           id="g24"
           transform="translate(1.8061,8.814)"><path
             d="m 0,0 c -0.125,0 -0.227,-0.102 -0.227,-0.227 v -1.074 c 0,-0.125 0.102,-0.227 0.227,-0.227 0.125,0 0.227,0.102 0.227,0.227 v 1.074 C 0.227,-0.102 0.125,0 0,0 m 0,-1.975 c -0.372,0 -0.674,0.302 -0.674,0.674 v 1.074 c 0,0.372 0.302,0.674 0.674,0.674 0.372,0 0.674,-0.302 0.674,-0.674 V -1.301 C 0.674,-1.673 0.372,-1.975 0,-1.975"
             style="fill:#000000;fill-opacity:1;fill-rule:nonzero;stroke:none"
             id="path26"
             inkscape:connector-curvature="0" /></g><g
           id="g28"
           transform="translate(4.3774,3.002)"><path
             d="m 0,0 h -1.174 c -0.124,0 -0.224,0.1 -0.224,0.224 0,0.123 0.1,0.223 0.224,0.223 H 0 c 0.308,0 0.598,0.121 0.817,0.339 0.218,0.217 0.338,0.507 0.338,0.816 V 4.526 C 1.155,4.59 1.13,4.648 1.087,4.692 1.043,4.736 0.984,4.761 0.921,4.761 H 0.333 c -0.123,0 -0.224,0.1 -0.224,0.223 0,0.124 0.101,0.224 0.224,0.224 h 0.588 c 0.183,0 0.354,-0.071 0.482,-0.199 0.129,-0.128 0.199,-0.3 0.199,-0.483 V 1.602 C 1.602,1.174 1.436,0.771 1.133,0.469 0.83,0.167 0.428,0 0,0"
             style="fill:#000000;fill-opacity:1;fill-rule:nonzero;stroke:none"
             id="path30"
             inkscape:connector-curvature="0" /></g><g
           id="g32"
           transform="translate(4.1733,8.814)"><path
             d="m 0,0 c -0.125,0 -0.227,-0.102 -0.227,-0.227 v -1.074 c 0,-0.125 0.102,-0.227 0.227,-0.227 0.125,0 0.227,0.102 0.227,0.227 v 1.074 C 0.227,-0.102 0.125,0 0,0 m 0,-1.975 c -0.372,0 -0.674,0.302 -0.674,0.674 v 1.074 c 0,0.372 0.302,0.674 0.674,0.674 0.372,0 0.674,-0.302 0.674,-0.674 V -1.301 C 0.674,-1.673 0.372,-1.975 0,-1.975"
             style="fill:#000000;fill-opacity:1;fill-rule:nonzero;stroke:none"
             id="path34"
             inkscape:connector-curvature="0" /></g><g
           id="g36"
           transform="translate(4.9682)"><path
             d="m 0,0 h -1.281 c -0.287,0 -0.557,0.112 -0.761,0.315 -0.204,0.204 -0.316,0.474 -0.316,0.762 v 2.149 c 0,0.123 0.1,0.223 0.224,0.223 0.123,0 0.223,-0.1 0.223,-0.223 V 1.077 c 0,-0.168 0.066,-0.326 0.186,-0.445 0.119,-0.119 0.276,-0.185 0.444,-0.185 H 0 c 0.122,0 0.236,0.048 0.322,0.134 0.086,0.086 0.134,0.2 0.134,0.322 v 0.824 c 0,0.172 0.067,0.335 0.189,0.458 0.124,0.122 0.286,0.189 0.459,0.189 h 0.819 c 0.124,0 0.224,-0.1 0.224,-0.224 0,-0.123 -0.1,-0.223 -0.224,-0.223 H 1.104 C 1.05,1.927 1,1.906 0.962,1.868 0.924,1.83 0.903,1.78 0.903,1.727 V 0.903 C 0.903,0.662 0.809,0.435 0.639,0.265 0.469,0.094 0.242,0 0,0"
             style="fill:#000000;fill-opacity:1;fill-rule:nonzero;stroke:none"
             id="path38"
             inkscape:connector-curvature="0" /></g><g
           id="g40"
           transform="translate(7.9043,3.0464)"><path
             d="m 0,0 c -0.422,0 -0.766,-0.343 -0.766,-0.766 0,-0.422 0.344,-0.765 0.766,-0.765 0.422,0 0.766,0.343 0.766,0.765 C 0.766,-0.343 0.422,0 0,0 m 0,-1.89 c -0.62,0 -1.124,0.505 -1.124,1.124 0,0.62 0.504,1.124 1.124,1.124 0.62,0 1.124,-0.504 1.124,-1.124 C 1.124,-1.385 0.62,-1.89 0,-1.89"
             style="fill:#000000;fill-opacity:1;fill-rule:nonzero;stroke:none"
             id="path42"
             inkscape:connector-curvature="0" /></g><g
           id="g44"
           transform="translate(7.9043,2.4898)"><path
             d="m 0,0 c -0.115,0 -0.209,-0.094 -0.209,-0.209 0,-0.115 0.094,-0.209 0.209,-0.209 0.115,0 0.209,0.094 0.209,0.209 C 0.209,-0.094 0.115,0 0,0 m 0,-0.687 c -0.263,0 -0.478,0.215 -0.478,0.478 0,0.263 0.215,0.477 0.478,0.477 0.263,0 0.478,-0.214 0.478,-0.477 0,-0.263 -0.215,-0.478 -0.478,-0.478"
             style="fill:#000000;fill-opacity:1;fill-rule:nonzero;stroke:none"
             id="path46"
             inkscape:connector-curvature="0" /></g></g></g></g></svg>